
<svg xmlns="http://www.w3.org/2000/svg" viewBox="0 0 714.9 440.3">
    <defs>
        <style>
            .cls-1{fill:#f4d39e}.cls-5{fill:#00202a}.cls-6{fill:#fda93b}.cls-7{fill:#fff}.cls-10{fill:#fd843b}.cls-11{fill:#fd7c3a}.cls-12{fill:#fd643b}.cls-13{fill:#e5e5e6}.cls-14{fill:#fd653b}.cls-16{fill:#eff0f0}.cls-18{fill:#ff6436}.cls-20{fill:#babcbe}.cls-21{fill:#ced1d2}.cls-24{fill:#ace0fd}.cls-26{fill:#21709a}.cls-27{fill:#154965}.cls-30{fill:#1d3745}.cls-31{fill:#3db5fd}.cls-33{fill:#29495c}.cls-34{fill:#2580b3}.cls-35{fill:#3aaa35}.cls-38{fill:#754c24}.cls-39{fill:#77ccfd}.cls-40{fill:#24ceff}
        </style>
    </defs>
    <g id="Layer_2" data-name="Layer 2">

        <ellipse id="floor" cx="362.4" cy="394.9" class="cls-16" rx="327" ry="38.3"/>
        <g id="bush_pair">
            <g id="rear">
                <path id="leaves" d="m101.4 283 .2-.6c2.5-8.4 10.6-49.4 35.5-41.1 25.6 8.4-1.7 50.5-1.7 50.5s20-13.7 26.6 1.5-13.4 28-13.4 28 16.5-3.2 14.7 5.7-38.6 3.8-38.6 3.8-8.9-20.4-8.9-21.3-20.3-13.3-20.2-13.6l6-13.3-.2.4Z" class="cls-39"/>
                <g id="stalk">
                    <path d="M112.7 302.8a1 1 0 0 1-.9-1c0-.2 4.2-27.1 15.4-44.6.3-.4.9-.5 1.3-.2s.6.9.3 1.3c-11 17-15 43.3-15 43.6-.1.5-.6 1-1 .9Z" class="cls-7"/>
                    <path d="M118 280.7a.9.9 0 0 1-.6-.3 1 1 0 0 1 0-1.3 73.1 73.1 0 0 1 18.7-10.5c.5-.2 1 0 1.3.6.2.5 0 1-.6 1.3-.1 0-13.9 5.5-18 9.9a1 1 0 0 1-.7.3Z" class="cls-7"/>
                </g>
            </g>
            <g id="front">
                <path id="leaves-2" d="M87 336.1c1.7-.3 39.5 5.8 44.1-9 4.6-14.6-15.3-36.1-24.3-30 0 0 6.8-27-22-31.6-29-4.5-14 15-14 15s-14.5-16.5-25 4.7c-10.4 21.3 17 33.6 17 33.6s-19.4 4-9.4 13.3c10.1 9.2 33.7 4 33.7 4Z" class="cls-31" data-name="leaves"/>
                <g id="stalk-2" data-name="stalk">
                    <path d="M88 336.1c1.4-28.6-9.5-52.1-9.6-52.4a1 1 0 0 0-1.3-.4 1 1 0 0 0-.4 1.3 121.9 121.9 0 0 1 9.4 51.7c.6 0 1-.2 1-.2h1Z" class="cls-7"/>
                    <path d="m86.7 321.8-.5-.2a1 1 0 0 1-.3-1.3c7.5-12.7 22.3-15 22.9-15.1.5-.1 1 .3 1 .8s-.2 1-.7 1.1a33 33 0 0 0-21.6 14.2 1 1 0 0 1-.8.5Zm-1.2-9.2a1 1 0 0 1-.8-.5C78 300.8 57 299.9 56.9 299.9c-.5 0-1-.5-1-1s.5-1 1-1c1 0 22.3 1 29.4 13.2.3.5.1 1-.3 1.3a1 1 0 0 1-.5.2Z" class="cls-7"/>
                </g>
            </g>
        </g>
        <g id="flask">
            <path id="liquid" d="M656 372c.8 1.2-14.4 2.8-7.2 7.4 7.7 4.8 37.4 10.6 38.6-4.6.3-4.3-28.8-3.2-28.8-3.2l-1.4-3.6-1.1 4Z" class="cls-12"/>
            <g id="glass">
                <path d="M654.5 364.6s-10.8-2.5-12-3.3-7.1-15.7-15-15.8c-7.7-.2-15.2 27-9 28.2 6.3 1.2 20.1-5 21.6-5.2s13.3 3.3 13.3 3.3l1.1-7.2Z" class="cls-6"/>
                <path d="M657.9 365c0-.2-3.7-1.7-4-1.4s-3 8.3-2.5 8.6 4 1 4.2 1 2.3-7.8 2.3-8.2Z" class="cls-6"/>
            </g>
            <path id="liquid-2" d="M652 366.7c-.5-1.3-28-5.2-31.6-3.7s-4.8 6.7-1 8.6 20.6-4 20.6-4l6.4 1.4 4.5 1.3 1-3.6Z" class="cls-12" data-name="liquid"/>
            <g id="bubbles">
                <path id="bubble" d="M626.2 366c.5.2 1 0 1.2-.6s-.1-1-.6-1.2a1 1 0 0 0-1.2.6c-.2.5 0 1 .6 1.2Z" class="cls-7"/>
                <path id="bubble-2" d="M632 369c.4 0 .7 0 .9-.4.1-.4 0-.7-.4-.9-.4-.1-.8.1-.9.5 0 .3.1.6.4.7Z" class="cls-7" data-name="bubble"/>
                <path id="bubble-3" d="M620 370a1.7 1.7 0 0 0 1.1-3.3 1.7 1.7 0 0 0-1 3.2Z" class="cls-7" data-name="bubble"/>
            </g>
        </g>
        <g id="man_pushing">
            <path d="m540.8 358.7-1.3 2.9 1.9 1.6h1.1l1.8-3-3.5-1.5z" class="cls-1"/>
            <path d="M539.5 361.6s-1.8.8-2.6 4.6c2.4 2 5 3.5 7.9 4.6 5 1.9 9.3 1.1 9.3.3s-.3-2.3-5.2-3.8-5.9-3.1-6.4-4a5.5 5.5 0 0 1-3-1.7Z" class="cls-34"/>
            <path d="m581.8 363.6 1.6 3.7 3.2-1.6-1.9-4.7-2.9 2.6z" class="cls-1"/>
            <path fill="#3c6d88" d="M551.2 297c0 4.3-.8 46.3-12.2 61.8 1.7 1.6 3.8 2.9 6.1 3.6 0 0 20.7-37.2 20.7-51.5S551.2 297 551.2 297Z"/>
            <path d="M551.2 297c0 4.3-.8 46.3-12.2 61.8 1.7 1.6 3.8 2.9 6.1 3.6 0 0 20.7-37.2 20.7-51.5S551.2 297 551.2 297Z" class="cls-30"/>
            <path d="M586.3 365c-1 .7-2.2 1-3.4 1-.2 1.7.2 3.4 1.3 4.8 0 0 7 1.8 16.4-2.4 0 0 .2-1.7-2.5-2.1s-6.6 1.6-11.8-1.3Z" class="cls-34"/>
            <path d="M550.3 287.2a28.7 28.7 0 0 0 3.2 21.2c5.5 9.8 20 21.3 20.4 23.3.4 2 6 28.3 7 32 0 0 4.7.3 6.7-2 0 0-3.3-23.5-4-34.2 0 0-13.9-30.9-16.8-36.9s-16.5-3.4-16.5-3.4Z" class="cls-33"/>
            <path d="M567.1 244.6s-.8 4.5-3.3 6.4-15 3-14.3 38.5c0 0 16.7 11 21.8 9.8 0 0 2.9-11.3 3.6-19.7 0 0 13 5.2 21.6 6l3-4.5 3.6 1.1v-2.5s-25.3-13.6-34-25a31 31 0 0 1 3-5.7c1.4-2-4.4-4.3-4.4-4.3h-.6Z" class="cls-39"/>
            <path d="M564 250.9c2.3-2 3.1-6.3 3.1-6.3h.6s5.9 2.3 4.4 4.3a36.8 36.8 0 0 0-3 5.8c-1.5.9-3.8-.5-5.2-3.8Z" class="cls-1"/>
            <path d="M570.8 251.3a10 10 0 0 1-4.1-5l.4-1.7h.6l1.8.8.4 1 2 3-1.1 1.9Z" class="cls-1"/>
            <path d="M580.5 231.5c0 1.2 1.9 7.1.8 14.2l-2-.7s-7.1 15.6-13-2.4c-6-18 10.2-12.1 10.2-12.1l4 1Z" class="cls-1"/>
            <path d="M576.6 227.8c1.2.4 6.8-3.9 8.6-.5s1 11.4-8.2 8.3-9.8 9.5-10.1 8.7c0 0-3.9 0-3.2-8.5.6-8.5 5.2-10.2 12.9-8Z" class="cls-33"/>
            <path d="M570.8 238.8c-1.2-1.2-2.1-2.7-3.7-1s.8 5 2 4.2 1.7-3.2 1.7-3.2Z" class="cls-1"/>
            <path d="M564.7 250.2s-.1 2.4 4.4 4.5l1 3.1s-4.4-.1-7.4-6.2l2-1.4Z" class="cls-24"/>
            <path d="m569.6 253.6 2 4-2.5-2.9.5-1.1z" class="cls-24"/>
            <path d="m599.6 281 5.4 1.5c2 .2 5.1 0 5.3.5s-1.9.7-1.9.7 2.6-.2 2.7.6-2.7.7-2.7.7 2.4-.1 2.2.7-4.8.4-4.8.4 3.2 1 2.7 1.5-5.8.4-8-.4a9.7 9.7 0 0 1-3.4-2.6l2.5-3.5Z" class="cls-1"/>
            <path fill="#1c6285" d="M600.6 368.4c0-.3 0-.7-.3-1a44.8 44.8 0 0 1-16.7 2.6l.6.8s7 1.8 16.4-2.4Zm-55.8 2.4c5 2 9.3 1.1 9.3.3v-.3a21 21 0 0 1-16.9-5.8 9 9 0 0 0-.3 1.2c2.4 2 5 3.5 7.9 4.6Z"/>
        </g>
    </g>
    <g id="Layer_1" data-name="Layer 1">
        <g id="plug">
            <path id="cable" d="M223.6 231a107.3 107.3 0 0 1-58.9-19.9l1.7-2c.2.2 22.6 18.4 57.3 19.3 18 .5 26.4-4.4 26.7-9.1 0-2.3-1.8-4.7-5.4-6.3-.5.9-1 1.7-1.6 2.4-4.6 5.6-12.8 7.9-24.3 6.8-14.5-1.4-16.3-3.8-16.1-5.8.3-2.4 4.6-4.4 13-6a90 90 0 0 1 22-1.6c2 .1 3.8.5 5.7 1 2.5-6.6.3-14 .3-14.2l2.5-.7c.1.4 2.5 8.4-.3 15.8 4.7 2 7 5.5 6.8 8.7-.2 5.5-7.5 11.7-26.8 11.7l-2.6-.1Zm19-18.9c-1.6-.4-3.2-.6-4.8-.7-7-.4-13.9.1-20.7 1.4-8.2 1.5-11 3.2-11.4 3.8.4.4 2.6 2 13.7 3 10.6 1 18-1 22-5.8l1.2-1.6Zm2.7-17-1.3.5 1.3-.4Z" class="cls-33"/>
            <path id="pins" d="M131 212.7a2.2 2.2 0 0 1-3 1.2l-18.8-8.3a2.2 2.2 0 0 1 1.8-4.1l18.7 8.3c1.2.4 1.7 1.7 1.2 2.9Zm10.5-24.3a2.2 2.2 0 0 1-3 1.2l-18.8-8.2a2.2 2.2 0 0 1 1.8-4.1l18.9 8.2c1 .5 1.6 1.8 1.1 3Z" class="cls-6"/>
            <g id="housing">
                <path d="M133.2 223s26.7 14.7 38-11.1c7.7-17.7-21.4-29.6-21.4-29.6l-16.6 40.8Z" class="cls-39"/>
                <path d="M115.7 194.4h49.1v15.2h-49.1z" class="cls-33" transform="rotate(-66.5 140.3 202)"/>
                <path d="M165.2 210.6h13.5v8.9h-13.5z" class="cls-39" transform="rotate(-66.5 171.9 215)"/>
            </g>
        </g>
        <g id="laptop_with_content">
            <path d="M164.8 366.2s1.8 8.9 9.7 11.5c7.8 2.7 370.5.4 378-2.2s7-9.3 7-9.3l-80.4-20-137.4-2.2-177 22.2Z" class="cls-11"/>
            <path d="m212.3 126 2.6 187.4 297.6 5-3.4-195.8-296.8 3.4z" class="cls-6"/>
            <path d="m164.8 366.2 50.1-52.8 297.6 5 47 47.8H164.8z" class="cls-6"/>
            <path d="M222.1 135.4V305l279.4 3.7V132.4l-279.4 3zm98 212.8s-9.2 10.2-5 11.3 74.5 4 75 .8-4.2-12-4.2-12-62-1.8-65.8 0Zm47.5-17.2-.7-7.6-15.1-.2.7 7.7 15.1.1zm-23.2-.2.4-7.7-24.7-.3-.5 7.8 24.8.2zm-32-.2 3.3-7.9-23.2-.3-3.2 8 23.1.2zm81.5.6-2.6-7.6-17.6-.2 1.8 7.7 18.4.1zm29.9.3-3.4-7.5-21.5-.3 2.9 7.6 22 .2zm-140.6-1.2 4.6-7.9-22.6-.3-3.9 8 21.9.2zm171.9 1.4-4.7-7.3-21.2-.3 4.5 7.4 21.4.2zm-221.4-10-8.8 8.2 26.9.2 6.8-8.1-24.9-.3zm260 10.3-7.8-7.2-25.3-.3 7.4 7.3 25.7.2zm-205.3.7-3.6 8.7 23 .3 3.6-8.7-23-.3zm31 .4-.6 8.7 25 .4.5-8.8-24.9-.3zm83.4 1 3.3 8.9 23.2.3-4.1-8.9-22.4-.3zm-26.7-.3 2.1 8.8 19.7.3-3-8.9-18.8-.2zm-153-1.9-8.8 8.5 28.4.4 7.3-8.5-26.9-.4zm212.4 2.6 5.4 9 22.1.3-5.9-9-21.6-.3zm61.9 9.7-4.2-9-22.1-.2 9.1 9 17.2.2zm-144.7-10.7.9 8.8 15.2.2-.9-8.8-15.2-.2zm-92.5-1.1L256 341l20.9.3 4.9-8.7-21.6-.2z" class="cls-7"/>
            <path d="M228.7 140.8v17.9h266.2l-1.2-17.9h-265z" class="cls-14"/>
            <path d="m354.6 169.8-6.8-1.3-15.6 23.9 11.7 3.5-2.8 15.5 10.3-.4.6-12.6 6.2 1.8 2.2-7.3-7.8-1.2 2-21.9Zm-13.2 18.6 5.4-6-1.3 7.4-4.1-1.4Z" class="cls-10"/>
            <path d="M419.8 169.8h-9a.6.6 0 0 1-.6-.6c0-.3.3-.6.6-.6h9c.3 0 .6.2.7.5 0 .4-.2.7-.6.7h-.1Zm.6 43H413c-.3 0-.6-.2-.6-.6s.2-.6.5-.6h7.5c.3 0 .6.2.6.6 0 .3-.3.6-.6.6Z" class="cls-33"/>
            <path d="M415.9 212.8a.6.6 0 0 1-.6-.6l-.6-43c0-.3.3-.6.6-.6s.6.3.6.6l.6 43c0 .3-.3.6-.6.6Z" class="cls-33"/>
            <path d="M448.9 146c-3.8.5-3.4 9.1 3.3 7.2 4-1.2 4.8-8-3.3-7.1Zm16.3 0c-3.8.5-3.4 9.1 3.3 7.2 4-1.2 4.8-8-3.3-7.1Z" class="cls-7"/>
            <path fill="#fdbf3b" d="M481 146c-3.8.5-3.4 9.1 3.4 7.2 4-1.2 4.8-8-3.4-7.1Z"/>
            <path d="M481.3 151.7s-.2 0-.3-.2a.4.4 0 0 1 0-.5l3.3-3.2c.1-.2.4-.2.6 0v.5l-3.3 3.3h-.3Z" class="cls-33"/>
            <path d="m484.6 151.7-.3-.1-3.2-3.3a.4.4 0 0 1 0-.5c.1-.2.4-.2.5 0l3.3 3.2v.5l-.3.2Z" class="cls-33"/>
            <path d="m425.8 169.2-1.3 5.2 69.1.1 1.3-5.2-69.1-.1z" class="cls-13"/>
            <path d="m425.1 179.2-1.3 5.1 69 .2 1.4-5.3h-69.1z" class="cls-20"/>
            <path d="m425.1 188.2-1.3 5.2 69 .1 1.4-5.2-69.1-.1z" class="cls-13"/>
            <path d="m425.8 197.8-1.3 5.2 69.1.1 1.3-5.2-69.1-.1z" class="cls-21"/>
            <path d="m425.8 207.6-1.3 5.2 69.1.1 1.3-5.2-69.1-.1z" class="cls-13"/>
            <path d="m359.3 226.6 2.1-5.3h132.3v6.5l-132.3 4.1-2.1-5.3z" class="cls-16"/>
            <path d="M357.8 236h135.9v5.8l-140.2 5 4.3-10.8z" class="cls-13"/>
            <path d="M235.2 280.5v2.9l54-.9-.5-3.1-53.5 1.1zm-.6 5.6h54v2.9h-54zm0 5.3v2.4l54.6 1v-3.4h-54.6z" class="cls-16"/>
            <path d="m453.1 208.9 4.2-5.1 6.8 9.5 4.2-3.9-8-7.2 3-3.5-12.1-5.7 1.9 15.9z" class="cls-33"/>
            <path d="m352.7 252.8 141-3.9-1.6 9.2H352.7v-5.3z" class="cls-13"/>
            <path d="m357.6 261.2 134.5 1.6 1.6 6.3H357.6v-7.9z" class="cls-16"/>
            <path d="m353.4 277.3 140.3 2.5v21.8l-152.2-2.1 11.9-22.2z" class="cls-10"/>
            <path fill="#38b6ff" d="m402.8 278.2-49.4-.9-11.9 22.2 47.2.6 14.1-21.9z"/>
            <path d="M385.3 191.5c0 11-5.7 19.9-12.8 19.9s-12.7-9-12.7-19.9 5.7-19.9 12.7-19.9 12.8 9 12.8 19.9Zm-12.8-9.3c-3.6 0-6.7 3.9-6.5 10.7.2 6 2.6 11.6 6.5 10.8 3.6-.8 7.1-4.9 6.6-10.8-1-9.6-3.7-10.7-6.6-10.7Z" class="cls-10"/>
            <path d="m403.1 166.6-10.6 1.3-7.6 27.5 12.2-.3 2 15.7h8.2l-1.7-15.7 6.4-.2v-7.7l-7.9 1.3-1-21.9Zm-10.7 22.2 2.8-11 1.6 11h-4.4Z" class="cls-10"/>
        </g>
        <g id="woman_with_big_spanner">
            <path d="M325.6 69.3s6.5 3.5 6.2 10.6l-2 .3s1 9.7-9.4 3.5-3.3-9.8-3.3-9.8c.5-1 1.2-2 2-2.9.4-.4 6.4-1.7 6.4-1.7Z" class="cls-1"/>
            <path d="M327.3 64c2.4-1.2 8.8 3.6 1.4 9.4s-9.1 2.7-9.1 2.7 3 10.4-.5 12.4c-6.2 3.6-4.4 8.7-6.8 11-3 2.8-13.4 2.3-12.7-6.6.6-9 10.8-8.2 12.3-12.3 2.3-6.2-1.3-8.8.6-11.8 2.6-4.3 6.6-1.3 14.8-4.9Z" class="cls-33"/>
            <path d="M322 77.4s-.9-2.8-2.4-1.5.4 4.8 2.3 4 .1-2.5.1-2.5Z" class="cls-1"/>
            <path fill="#14262e" d="M307 121.4s-3.6-1.7-5-1.5-3 1.1-3.2 2 3 2.8 3.8 3 5.6-1.6 5.6-1.6l-1.3-1.9Zm15.7 30.6s3 3 3.3 4-.2 3.9-1 4.2-3.8-1.4-4.3-2.9.3-5.2.3-5.2l1.7-.2Z"/>
            <path d="M323.8 84.6c-.1.3-1 2.9.5 4 0 0 4.1 5.3-4 4-8.6-1.2-1.3-4.1-1.3-4.1s1.5-.8 1.6-5.8c1.5-.2 1.6 1.9 1.6 1.9.2-.6.1-.1 1.6 0Z" class="cls-1"/>
            <path d="M324 88.5s5 0 8.5 1.6l-1 7.9s-6.2 12.8 2.3 18.4c5.2 3.5-24 8.8-20.3.9 4.7-10.1-.2-19.7-.2-19.7l-1.6-7.9 7.4-1.2s-2.7 1.8 1.4 2.4 3.6-2.4 3.6-2.4Z" class="cls-11"/>
            <path d="M307.7 120.8s-.1 2 .2 2.5 20.8 4.1 32 1.9c9.3-2 5.7-12-4.6-9.8l-27.6 5.4Z" class="cls-30"/>
            <path d="M294.7 84.4 283.8 72l-1 .7 8.9 15.8 3-4.1z" class="cls-1"/>
            <circle cx="327.6" cy="99.9" r="5" class="cls-11"/>
            <path d="M312.2 100a5 5 0 1 1 10 0 5 5 0 0 1-10 0Z" class="cls-11"/>
            <path d="M311.7 89.7s-13.1-3.4-18.5-7c0 0-2.2 3.3-1.5 5.8 0 0 15 8 21.6 9.1 0 0 1.8-6.7-1.6-7.9Z" class="cls-11"/>
            <path d="m321.2 152.1 1.5-.2 1.1 1.2s1.7 2.2 1.1 3.2-2.8 1.2-3.4.1-.5-3.9-.5-3.9l.2-.4ZM307 121.7s-3-1.6-4-.7a2 2 0 0 0 .1 3c.6.3 4.5-.9 4.5-.9l-.7-1.4Z" class="cls-1"/>
            <path d="M322.9 152c-.6.5-1.3.7-2 .6 0 0-14.8-24.7-15.8-31.1s3.7-11.2 9.3-2.9S323 152 323 152Z" class="cls-33"/>
            <path fill="#fd593b" d="M320.6 90.9c4.1.6 3.5-2.4 3.5-2.4h1.4c.3 1.3.4 4-4.8 3.8-3.9 0-4.4-2-4.1-3.4l2.5-.4s-2.7 1.8 1.4 2.4Z"/>
            <path d="M323.6 85.2v.8c-1.1 0-2.2-.2-3.2-.4l.3-2.2c.8.9 1.8 1.5 3 1.8Z" class="cls-1"/>
            <path d="M275.3 83c4.6 2 48.4 47 48.4 47a7.8 7.8 0 0 0-.5 3.6c.6 5.6 3.3 10.4 11.7 13 0 0-4.3-8.5-4.5-9.5s2.4-5.6 3.2-5.7 4.7-.4 6 .5 4.3 8.7 5 8.4c.5-.1 2-7.3-1.4-13.1s-10.6-5.4-12.8-4.1l-48-48.2s-.2-6.5-2-10.2c-1.8-3.8-11.5-8.6-12.7-8.3-1.4.2 6.7 9.6 5.9 11.6s-9.1 6.4-10.5 5.7-5.1-12.2-5.6-11.6-3.2 10.7 1.9 16.6c5 5.9 11.4 2.2 16 4.3Z" class="cls-31"/>
            <path d="M283.4 82.6c1-1 2.6-1 3.6 0l36.2 36.4a2.6 2.6 0 0 1-3.6 3.6l-36.2-36.4c-1-1-1-2.6 0-3.6Z" class="cls-34"/>
            <path d="M339.7 109.6s-10.7 5.8-14.6 6.1c0 0-.4 1.9.2 2 0 0 20.8-4.7 22.5-8.1l-4-1.8-4.1 1.8Zm-54.7-36c0-1.6-.9-3-2.3-3.6-2.5-1.2-3.6-1.2-3.1-.6s2.4.9 2.4 2c0 1.2 1.1 2.3 3 2.2Z" class="cls-1"/>
            <path d="M332.5 90.1s11.4 8.4 15.3 19.5c0 0-5 1.4-8.1 0 0 0-3.4-7-8.3-11.6-3.1-3 1.1-7.9 1.1-7.9Z" class="cls-11"/>
            <path d="M325.6 115.6c-1 0-1.2.4-1.9.4-1.2 0-2.8-.5-3.2-.1s.4.8 1 1c.6.4 1.2.3 1.2.5-1 1-2.2 2-3.5 3-.8.4-.6 1.5.3 1l2.7-2c.1 0-2 2.4-2.4 2.6-1 1-.4 2 .8.9 1.5-1.6 2.3-2.6 2.4-2.5s-1.5 2.2-1.7 2.5c-.7.9-.3 1.8.7.7 1.5-1.7 1.9-2.5 2-2.4l-1 2c-.4.8.1 1.5.9.3l1.1-2.2c.3-.2 2.4-2 2.6-3.5 0-1-1.3-2.2-2-2.2Z" class="cls-1"/>
            <path d="m346.5 109.9.2-.1c-2.3-6.2-11.9-17.3-14.1-19s-6.8-1.9-7-1.9v.2s4.7.3 6.9 1.9 11.7 12.7 14 18.9Zm-34.6-19.4c1.6 0 3.2-.4 4.7-1l-.1-.2c-1.5.6-3 1-4.6 1-2 0-14.3-3.2-19-7l-.2.2c4.8 3.8 17.2 7 19.2 7Z" class="cls-7"/>
        </g>
        <g id="woman_with_big_magnifier">
            <path fill="#ffd59e" d="m218.5 249.4 13.7 21.1s6 0 8.9-3.5l-1.7-5.7-4.4 1.6-8.3-7.3-4.7-6.2h-3.5Z"/>
            <path d="M249.3 332.3s6 3.7 8 18.2c2.1 14.4.3 35.2 5.3 44.6v2.8l-6.7 2.2-5.5 1.4h-6.3a2 2 0 0 1 .2-2.7c1.7-1.2 12.3-6.2 12.4-8.8s-21-53.8-21-56.9l7.4-3 6.2 2.2Z" class="cls-38"/>
            <path d="M250.4 401.5h-6.3a2 2 0 0 1 .2-2.7v-.1a36 36 0 0 1 2.6-1.4c1.4 3.8 11.7-2.3 14.8-4.3.2.7.5 1.4.9 2v3l-6.7 2.1-5.5 1.4Z" class="cls-5"/>
            <path d="M276.4 330.1s4.8 5.6 4.4 18.6-11.6 36.4-11 42.2 1.8 8.3 1 10.6c0 0-19.8.2-20.4 0s-2.2-1.9 0-2.8c2.1-1 14.5-3 16-9.2s1-64.6 1-64.6l9 5.2Z" class="cls-38"/>
            <path d="m250.4 398.7 2.6-.7c4.3 1.1 14-3.2 17-5 .7 4.5 1.5 6.5.9 8.5 0 0-19.8.3-20.5 0s-2.1-1.8 0-2.8Z" class="cls-5"/>
            <path d="m269 222.6 4.4 6.5 3.9 5.8s-5.2 10-5.8 10.2-11.3 3.2-12.5 2.8-6-4.3-6-4.3l4.2-12s4.9 0 5.4-2.2c.4-2.3.5-4.5.4-6.8h6Z" class="cls-38"/>
            <path fill="#00aae2" d="M252.2 232.2s-17 30.6-19.4 32.6c-1 .8 4.6 4.4 5 4.4 2.9-.6 11.8-7.7 13.5-13.6l.9-17.7v-5.7Z"/>
            <path d="M262.7 228.8c.2-2 .3-4.2.3-6.2h6l1 1.6c-1.8 2.4-4.4 4-7.3 4.6Z" class="cls-38"/>
            <path d="M255.3 199.1s-9.8 8.6-6.4 20.6l3.6-.4s2.2 17 17.4 2.2c15.2-14.9 1.9-18.1 1.9-18.1s-3.6-3.7-4.6-4-11.9-.3-11.9-.3Z" class="cls-38"/>
            <path fill="#00547a" d="M250.1 190.6c-4.6-.8-13.6 9.9 1.4 16.8s17 .3 17 .3-5.6 21.3 6 25.8c5.2 2 7.5 10.6 12.6 13.5 6.3 3.7 23.7-1.8 19-16.9s-18.6-10.9-22.9-17.3c-6.4-9.7-1.3-15.6-5.7-20-6.2-6-11.8.7-27.4-2.2Z"/>
            <path d="M264.7 211.6s.4-5.3 3.5-3.7c3 1.6 1.3 8.4-2.3 7.9s-1.2-4.2-1.2-4.2Z" class="cls-38"/>
            <path fill="#00405f" d="M281.2 277.4s7.7 4.6 6.6 18.5c-1 14-10.5 36-10.5 36s-11.3 9.4-41.7 1.2c0 0 9.2-37.9 18.8-47.4 9.6-9.6 16.4-7.1 16.4-7.1l10.4-1.2Z"/>
            <path d="M285 239.1c-3.3-2-6.8-4-10.4-5.6 0 0-13.5 12-14.8 12-3.6-.5-3-14-2.5-14l-5.1.7s-4.9 12.3-8.3 18.3c0 0-.9 6.5 8 8.4a79 79 0 0 0 2.5 26.8s12 4.5 26.8-8.3c0 0-15-14-1.1-27.6l5-10.7Z" class="cls-40"/>
            <path d="M256.4 257.6h1.3l.9.2h5.5l1.1-.2 1.1-.2 1-.3c.3 0 .6 0 .8-.2l.7-.1.7-.2-.4.6-.5.5a9.2 9.2 0 0 1-2.7 1.9l-.7.2a8.3 8.3 0 0 1-2 .4h-1.4a7.6 7.6 0 0 1-2.6-.6 7.8 7.8 0 0 1-2.8-2Zm25.8 15.4s-3 .5-7.5-3c0 0 5.4-16 1.2-18.7 0 0 3.3-9.2 9.1-12.2 0 0 7.3 15.7-2.8 33.9Z" class="cls-40"/>
            <path d="M303.9 386.2c0-2.8-1.1-5.5-3.1-7.5l-61.2-60.1-14.7 15v.2l15 14.7L286 394c4.2 4 10.8 4 14.9-.1 2-2 3-4.8 3-7.6Z" class="cls-18"/>
            <path fill="#93d1ec" d="M170 325.1a42.9 42.9 0 1 1 60.3-61.3 43 43 0 1 1-60.3 61.4Z" opacity=".5"/>
            <path fill="#ffcc6f" d="M234.7 259.2a49.4 49.4 0 1 0-69.3 70.5 49.4 49.4 0 0 0 69.3-70.5Zm-34.3 78.3a42.8 42.8 0 1 1-.7-85.6 42.8 42.8 0 0 1 .8 85.5Z"/>
            <path d="M234.7 259.2a49.4 49.4 0 1 0-69.3 70.5 49.4 49.4 0 0 0 69.3-70.5Zm-34.3 78.3a42.8 42.8 0 1 1-.7-85.6 42.8 42.8 0 0 1 .8 85.5Z" class="cls-18"/>
            <path d="M229.6 312.5c-.8-.8-1-2-.5-3a33 33 0 0 0-6.2-38.3c-1-1-1-2.6 0-3.6s2.6-1 3.6 0a37.9 37.9 0 0 1 7.2 44.2 2.5 2.5 0 0 1-3.4 1.1c-.3 0-.5-.2-.7-.4Zm-12.7 13.8a2.5 2.5 0 0 1 .4-4c2.2-1.3 4.2-3 6-4.8a2.5 2.5 0 0 1 3.8 3.4l-.1.1c-2.1 2.2-4.5 4-7 5.6-1 .7-2.3.5-3.1-.3Z" class="cls-7"/>
            <path d="M278.8 272.4a14 14 0 0 1-3.7-2.7c-4.6 7.7-21.1 15.6-21.1 15.6h-9c-2-.1-1.9 1.4-1 1.6s3.4 0 3.7.2-5 1-7.4 4c-.7.8-.2 1.8.4 1.3 2.4-2 3.9-2.2 3.9-2.2s-4.3 2.2-4.8 3.2c-.2.4-.5 1.6.7 1.1 1.9-1 3.6-2 5.3-3.2 0 0-5.4 3.6-5 4.1.7 1.2 4.8-1.7 6.4-3.1 0 0-3.3 4.4-1.6 4.5 1.2 0 4.4-5.1 5.6-6l3-2.9c17.4-2.5 26-12.1 27.4-14.9-1 0-2-.2-2.9-.6ZM225 251.7a29 29 0 0 0-4.6-5c-2.5-2-5.6-3.4-7.8-2.3s-8.2 5.5-6.5 6.5a1.6 1.6 0 0 0 2.4-.8s-3.8 2.1-2 3 2.4-.5 2.4-.5-2.6 1.7-2 2.6 3.3-.4 4.8-2.6c0 0-1.9 2.7 0 3s5.3-6.6 5.3-6.6.1 6.7 1.5 5c1.3-1.6 1.4-4.8 1.4-4.8l5 2.5Z" class="cls-38"/>
            <path d="m270.3 335.1-.4-.1c8.3-21.8 9.6-35.2 9.2-42.7-.5-8-3-11-3-11l.4-.3c0 .2 2.5 3.1 3 11.3.4 7.4-.9 21-9.2 42.8Zm30.5 58.9c-15.8-6.9-65.1-64.2-65.6-64.8l.3-.2c.5.6 49.8 57.8 65.5 64.6l-.2.3Z" class="cls-7"/>
        </g>
        <g id="man_seated_on_floor_with_laptop">
            <path d="M442.2 353s6.4-5.3 13.2-6.9c4-1 8.4-1 12.5 0l7.1-1.6s13 2.7 19 8.7v13.4l-1.3 11.5c-.1.2-5.9 3.3-5.9 3.3l-2.2 7.6-.7 3.5-1.3 10-15.6.3-21-5.8-6.2-24.1 2.4-19.9Z" class="cls-35"/>
            <path fill="#d15430" d="M444.4 400c-.3-.2-12.5-6.6-21-1.6-8.4 5-4.4 16.3-4.4 16.3l13.7 1.6s17.8-.3 18.9-.7 5.7-9.6 5.7-9.6l-10-6h-3Z"/>
            <path d="M441.3 413c-2.7.2-5.5 0-8.2-.6l.3 8.4 7.5-.3.4-7.6Z" class="cls-1"/>
            <path d="M418.3 405.9s-6.3 7-.5 16l17.4-1.2s-2.2-2.8-1-8c0 0-8.9-8.8-15.9-6.8Z" class="cls-27"/>
            <path d="M422.8 405.9c-2.9 2.2-6.2 7-3 16h-2c-5.8-9 .5-16 .5-16 1.5-.4 3-.4 4.5 0Z" class="cls-26"/>
            <path d="M474.4 343.8s2.2 1.7 1.6 4.4c-.6 2.7-5.7 12-11.9 13.5 0 0-11.5-8.7-8.5-16.4s7.5-4 7.5-4l11.2 2.5Z" class="cls-1"/>
            <path d="M455.6 345.4c3-7.7 7.5-4 7.5-4l11.2 2.4.7.7s-1.3 8.7-10.2 9.7c-8 .9-9.7-7.7-9.2-8.9Z" class="cls-1"/>
            <path d="M463.6 354.3c-2.6.1-5-1.2-6.5-3.4a8.5 8.5 0 0 1-1.6-5.6c1.6-4 3.7-5 5.1-5 1 0 1.8.4 2.6 1l11.2 2.4.7.7c0 .2-1.5 8.9-10.3 9.9h-1.2Zm-3-13.8c-2 0-3.7 1.7-5 4.9a9 9 0 0 0 1.7 5.4 7.4 7.4 0 0 0 6.3 3.4l1.2-.1c8.4-1 10-9 10.2-9.6a6 6 0 0 0-.7-.6l-11.2-2.5c-.7-.5-1.6-.8-2.5-.9Z" class="cls-7"/>
            <path d="M475.1 326s7.3 22-9.5 25c-16.8 3.1-11.1-24.9-11.1-24.9l12.8-2.6 7.8 2.6Z" class="cls-1"/>
            <path d="M454.3 336.6s-1.3-2-3.5-1.3 1.5 10.2 4.9 8.8-1.4-7.5-1.4-7.5Z" class="cls-1"/>
            <path d="M473.6 327.6s-6.8 11.7-20 8.2-6-11.7-6-11.7 1.3 1.7 2.4 1.6 6.4-12.4 18-10.8 8.2 5.2 8.2 5.2 2.4-.7 4.6 2.4c2.2 3 2.3 12-2.2 14.4l-2-2a23 23 0 0 0-3-7.3Z" class="cls-27"/>
            <path d="M475.9 335.8s1.1-2.2 3.4-1.6-.7 10.3-4.2 9.1.8-7.5.8-7.5Z" class="cls-1"/>
            <path d="M438.5 412.1s-.7 6.1.4 9.3c0 0 41.2 3.5 57.7-2.2s18.8-13 12.6-18.4c-6-5.4-29.7-7-70.7 11.3Z" class="cls-14"/>
            <path d="M493.2 413.1s-7.1 8.3-9.4 8.6l9-.4 3-1.7.3-4-2.9-2.5Z" class="cls-1"/>
            <path d="M508.5 405.2s6.8 6.4 1.7 16l-17.4.1s2-3 .4-8.2c0 0 8.2-9.3 15.3-8Z" class="cls-27"/>
            <path d="M504 405.5c3 2 6.8 6.5 4.3 15.7h2c5-9.6-1.8-16-1.8-16-1.5-.3-3-.2-4.4.3Z" class="cls-26"/>
            <path d="M497.4 420.2c0-.2 1-3.8-.5-7l-.5.3c1.5 3 .6 6.5.6 6.5l.4.2Zm2.8-.2c0-.1 1-4.5-1.3-8l-.4.3c2.2 3.3 1.2 7.6 1.2 7.7h.5Zm-68-.1.5-.2c-1.2-4.4-.2-6.4-.2-6.4l-.4-.3c0 .1-1.2 2.2.1 6.9Zm-2.8.1.5-.2c-1.8-4.8 1-7.5 1-7.5l-.3-.4s-3 3-1.2 8Z" class="cls-7"/>
            <path d="M494 353.2s15 17 18.3 33.9c3.5 17-27.5 21-39.6 17.4l-1.2-8s16.4-7.4 16-10.6c0-1.5-.2-3-.6-4.4 0 0-4.7-14.8 7.2-28.3Zm-51.8-.2s-26.6 24.2-23.1 36.4c3.1 11 28.9 18 36.8 16.7v-6.4s-17.1-9.4-16-13.6c.3-1.6 1.1-3 2.2-4.2 0 0 8.3-23.5 0-28.9Z" class="cls-35"/>
            <path fill="#919395" d="M441.3 406.4v.9h12.3v-.9h-12.3zm32.9 0v.9h12.3v-.9h-12.3z"/>
            <path fill="#a5a7aa" d="M434.3 409.8h60.6v-2.7l-61.1.3.5 2.4z"/>
            <path d="M434.6 406.4h59l1.3-39.1-61.9-.3 1.6 39.4z" class="cls-21"/>
            <path d="M463.4 381.2c3.5-.3 7.5 1 7.6 6.3s-10.6 7-11.3 1.1 2.5-7.3 3.7-7.4Z" class="cls-7"/>
        </g>
        <path d="M578.3 403c-2.2 0-4.5 1-4.5 2.4 0 3 9.2 1.8 8.9-.6-.2-1.2-2.7-1.7-4.4-1.7Z" class="cls-33"/>
        <path d="M255.4 419.8c-2.7-.1-5.5.7-5.6 2-.3 3 11 2.2 10.7-.2 0-1.1-3-1.7-5-1.8Z" class="cls-12"/>
        <path fill="#1d6185" d="M227 405.9c3.8.3 9.5 2.2 8.2 5.8s-16 2.8-16.7-1.7c-.7-4.5 5.5-4.4 8.4-4.2Z"/>
        <path d="M479.9 411.3c-2.3 0-4.6.9-4.7 2 0 2.5 9.4 1.3 9-.8 0-1-2.5-1.2-4.3-1.2Z" class="cls-6"/>
        <path d="M597.1 402c3.6-.2 9.3 1 8.5 4.5s-14.7 4.5-16 .3c-1.1-4.1 4.7-4.8 7.5-4.9ZM547 425c1.4 0 3.8.4 3.4 1.8s-6 2-6.6.2 2-2 3.1-2Z" class="cls-33"/>
        <g id="rock_group">
            <g id="rock">
                <path d="M166 347.4c-8-10.5-14.2-22.4-28.1-24.2-13.9-1.9-42.4 0-47.5 5.5-5.2 5.3-24.1 24.8-6 34.2 18 9.4 104 13.4 81.7-15.5Z" class="cls-21"/>
                <path d="M104.3 343.4c14.3 4.5 20.7 8 33.8 10.1 13.2 2.3 21.9-11 22.1-14l5.9 7.8c22.3 29-63.7 25-81.7 15.6-10.6-5.5-8.5-14.5-3.9-22 4.6-1.6 9.5-2 23.8 2.5Z" class="cls-20"/>
            </g>
            <g id="pebble">
                <path d="M89.1 339.5c14.9 8.8 13.3 27.4-6 34.5-19.4 7.1-33-7.2-28.9-16.8 4.2-9.6 16.9-28.3 35-17.7Z" class="cls-21"/>
                <path d="M56 353.8c-.2 5.4.8 10.3 5 10.3 9.3.2 6.7-4.2 17.7-3.1 11 1 19.2-7.5 19.7-10.2C101 359.4 96 369.3 83 374c-19.3 7.1-33-7.2-28.8-16.8a28 28 0 0 1 1.7-3.5Z" class="cls-20"/>
            </g>
        </g>
    </g>
</svg>
