<?xml version="1.0" encoding="UTF-8"?>
<svg id="Layer_2" data-name="Layer 2" xmlns="http://www.w3.org/2000/svg" viewBox="0 0 847.09 583.14">
  <defs>
    <style>
      .cls-1 {
        fill: #b21111;
      }

      .cls-2 {
        fill: #bcb2a7;
      }

      .cls-3 {
        fill: #a37e7e;
      }

      .cls-4 {
        fill: #605e6b;
      }

      .cls-5 {
        fill: #1d1d1b;
      }

      .cls-6 {
        fill: #787782;
      }

      .cls-7 {
        fill: #877d72;
      }

      .cls-8 {
        fill: #afadbc;
      }

      .cls-9 {
        fill: #c7cdd4;
      }

      .cls-10 {
        fill-rule: evenodd;
      }

      .cls-11 {
        fill: #fff;
      }

      .cls-12 {
        fill: #cfa780;
      }

      .cls-13 {
        fill: #cea680;
      }

      .cls-14 {
        fill: #cdcbd9;
      }

      .cls-15 {
        fill: #e0e0e2;
      }

      .cls-16 {
        fill: #a2a6b0;
      }

      .cls-17 {
        fill: #be6e6d;
      }

      .cls-18 {
        fill: #ffddc0;
      }

      .cls-19 {
        fill: #e2b281;
      }

      .cls-20 {
        fill: #a56565;
      }
    </style>
  </defs>
  <g id="Layer_1-2" data-name="Layer 1">
    <path class="cls-14" d="M90.05,562.39c0,11.46,81.78,20.74,182.66,20.74s182.66-9.29,182.66-20.74-81.78-20.75-182.66-20.75-182.66,9.29-182.66,20.75Z"/>
    <g>
      <path d="M532.29,161.11c-.05-.22-.46-1.55-.9-2.95-1.55-4.97-4.44-14.23-4.89-17.67-.07-.51-.27-2.06.79-2.96,1.09-.93,2.59-.49,3.92-.1.32.09.79.23,1.12.29.16-1.81-1.14-8.25-3.02-14.77-.19-.65.19-1.33.84-1.51.65-.19,1.33.19,1.51.84,1.6,5.58,4.08,15.23,2.62,17.16-.91,1.19-2.49.72-3.76.35-.45-.13-1.25-.37-1.6-.36-.02.12-.04.35.02.75.42,3.23,3.38,12.7,4.8,17.25.68,2.18.91,2.91.96,3.18.14.66-.28,1.29-.94,1.43-.09.02-.17.03-.26.03-.56,0-1.07-.39-1.2-.96Z"/>
      <path d="M564.6,168.13c.44,0,.87-.24,1.09-.66,2.76-5.28,8.41-15.7,10.7-18.78.11.55.2,1.23.27,1.72.28,2.11.5,3.77,1.88,4.05.8.16,2.67.55,10.77-13.8.33-.59.12-1.33-.46-1.67-.59-.33-1.34-.12-1.67.46-3.08,5.46-6.31,10.36-7.88,12.05-.08-.46-.15-1-.21-1.42-.29-2.16-.54-4.03-1.97-4.42-.81-.22-1.62.17-2.38,1.17-2.7,3.31-10.34,17.85-11.2,19.5-.31.6-.08,1.34.52,1.65.18.09.37.14.57.14Z"/>
      <path d="M548.56,160.48c.57,0,1.08-.4,1.2-.98.04-.21.18-1,.39-2.19.94-5.33,3.43-19.48,4.74-23.42.05-.14.1-.26.14-.35.35.46.81,1.25,1.08,1.73.94,1.64,1.92,3.34,3.47,2.76.72-.27,2.39-.91,6.24-19.63.14-.66-.29-1.31-.95-1.44-.67-.14-1.31.29-1.44.95-1.89,9.18-3.58,15.22-4.52,17.27-.23-.35-.48-.79-.67-1.13-.99-1.73-1.94-3.37-3.48-3.23-1.41.12-1.99,1.74-2.18,2.27-1.38,4.14-3.8,17.92-4.84,23.8-.2,1.15-.34,1.92-.38,2.12-.14.66.29,1.31.95,1.45.08.02.17.03.25.03Z"/>
    </g>
    <path d="M408.67,418.21c.08,0,.16,0,.24-.02.55-.11.96-.58.98-1.14.17-3.73,1.31-10.07,3.64-11.18,2.33-1.11,7.49,2.72,9.62,4.76.43.41,1.09.45,1.57.1.48-.35.64-.99.38-1.53-.77-1.57-2.45-6.21-1.03-8.79.63-1.15,1.84-1.82,3.7-2.02.67-.08,1.15-.68,1.08-1.35-.08-.67-.68-1.15-1.35-1.08-2.67.3-4.54,1.4-5.57,3.28-1.13,2.07-.95,4.68-.46,6.86-2.64-1.86-6.28-3.72-8.98-2.43-2.8,1.34-4.05,5.92-4.6,9.35-1.71-2.69-4.38-5.98-7.34-6.21-3.09-.22-6.08,2.87-7.95,5.37-.43-2.14-1.37-4.74-3.41-6.26-1.85-1.38-4.21-1.63-7.01-.75-.64.2-1,.89-.8,1.53.2.64.89,1,1.53.8,2.04-.64,3.62-.52,4.81.38,2.83,2.11,2.8,7.76,2.8,7.82,0,.56.37,1.05.91,1.2.54.15,1.11-.09,1.38-.58,1.56-2.77,4.91-7.06,7.39-7.06.05,0,.11,0,.16,0,2.54.2,5.78,5.17,7.22,8.26.2.44.64.71,1.11.71Z"/>
    <g>
      <polygon class="cls-4" points="515.15 220.2 512.5 221.15 497.67 205.68 498.81 203.35 515.15 220.2"/>
      <polygon class="cls-8" points="515.15 220.2 512.21 197.6 498.81 203.35 515.15 220.2"/>
      <path d="M514.27,221.05l-16.34-16.85c-.28-.29-.4-.7-.32-1.09.08-.39.35-.73.72-.88l13.4-5.75c.35-.15.75-.13,1.09.06.33.19.56.52.61.91l2.94,22.6c.07.52-.21,1.03-.68,1.26-.17.08-.35.12-.53.12-.32,0-.64-.13-.88-.37ZM500.92,203.77l12.54,12.93-2.26-17.34-10.28,4.41Z"/>
      <path d="M512.5,222.37c.14,0,.28-.02.41-.07l2.65-.95c.64-.23.97-.93.74-1.56-.23-.64-.93-.97-1.56-.74l-1.91.68-13.68-14.28.76-1.56c.29-.61.04-1.34-.56-1.64-.61-.29-1.34-.04-1.64.57l-1.13,2.33c-.22.46-.14,1.01.22,1.38l14.82,15.47c.24.25.56.38.88.38Z"/>
    </g>
    <g>
      <g>
        <g>
          <path class="cls-8" d="M176.58,448.43c-.62-.4-1.08-.92-1.37-1.55-.65-1.42-.31-3.17.9-4.57l102.93-119.84,8.13,4.41-103.16,120.11c-1.9,2.21-5.23,2.86-7.43,1.45Z"/>
          <path d="M282.06,318.94l-105.96,123.37c-1.2,1.4-1.55,3.15-.9,4.57.29.63.75,1.15,1.37,1.55,2.2,1.41,5.53.76,7.43-1.45l105.71-123.08,2.07,1.34-105.92,123.33c-1.68,1.96-4.2,3.02-6.64,3.02-1.41,0-2.8-.36-3.97-1.11-1.01-.65-1.8-1.54-2.28-2.59-1.05-2.3-.57-5.05,1.26-7.18l105.74-123.12,2.07,1.34Z"/>
          <path class="cls-8" d="M385.57,191.08l134.76,84.39c-5.51.81-10.98,1.79-16.47,2.7-6.22,1.03-12.43,1.82-18.72,2.32-6.13.48-12.28.88-18.36,1.78-3.05.45-6.03,1.1-9.02,1.81-2.99.71-6.05.67-9.08,1.13-2.77.43-5.51,1.13-8.19,1.97.58.24,32.65,8.19,43.92,10.18-10.37,1.77-21.02,3.81-31.71,6.03l-60.95,11.6,5.38,5.53.91-.19c4.62,5.64,9.35,11.2,14.21,16.64-.66.04-1.32.07-1.98.07-10.77-1.51-21.83-2.84-32.56-2.16-2.04-.16-3.54-.35-4.73-.57l-5.04,1.81c-3.37.67-6.7,1.61-9.94,2.88-2.38.93-4.68,2.03-6.97,3.18l-20.37,7.3-.29.75s-.05,0-.07,0l-38.5-24.98-2.07-1.34-7.66-4.97-2.07-1.34-107.71-69.89-4.62-.7c-1.8-1.3-3.45-2.84-4-4.89l-3.94-2.55,225.85-48.49Z"/>
        </g>
        <polygon class="cls-4" points="391.75 314.99 452.7 303.39 484.4 297.36 482.27 302.97 398.04 320.33 397.12 320.52 391.75 314.99"/>
        <path class="cls-4" d="M330.35,350.27s.3-.79.3-.79l20.37-7.3,16.91-6.06,5.04-1.81c1.19.22,2.69.4,4.73.57.75.06,1.57.12,2.48.17,3.63.22,7.27.24,10.9.37,3.65.12,7.23.51,10.85.97,2.76.36,5.54.66,8.32.65.66,0,1.32-.03,1.98-.07.17-.01.35,0,.52-.02.07,0,.14-.03.2-.06l-2.61,5.76-40.01-2.53-42.33,16.15.75-1.95,1.87-3.86-.3-.2Z"/>
        <path class="cls-4" d="M440.77,288.3c.49-.15.98-.3,1.48-.44,2.68-.79,5.45-1.47,8.22-1.73,1.5-.14,3.01-.19,4.51-.39,1.49-.19,2.94-.52,4.39-.88,2.98-.73,6.01-1.26,9.05-1.67,6.22-.84,12.5-1.2,18.75-1.72,11.66-.98,23.09-3.45,34.66-5.06l.27.17-2.63,5.81-66,8.06-6.93-1.05-6.24-.95c.15-.05.31-.1.46-.15Z"/>
        <polygon class="cls-4" points="156.91 245.37 167.66 247.01 172.28 247.71 330.29 350.23 330.35 350.27 330.65 350.47 328.78 354.33 327.83 356.28 156.91 245.37"/>
      </g>
      <path d="M330.65,351.69c.15,0,.29-.03.44-.08l42.08-16.06,39.75,2.52c.68.02,1.26-.47,1.3-1.14.04-.67-.47-1.26-1.14-1.3l-40.01-2.53c-.18,0-.35.02-.51.08l-42.33,16.16c-.63.24-.95.95-.71,1.58.19.49.65.79,1.14.79Z"/>
      <path d="M326.88,356.71c-.24-.63.08-1.34.71-1.58l42.33-16.15c.16-.06.34-.08.51-.08l39.17,2.48,1.94-4.28s-15.27-15.71-15.3-15.74l-5.36-5.51c-.31-.32-.42-.79-.29-1.22.14-.43.49-.75.94-.83l92.66-17.63c.44-.08.88.08,1.17.42.28.34.36.81.21,1.22l-2.13,5.61c-.15.39-.49.68-.9.76l-82.96,17.11,14.31,14.72c.35.36.44.9.24,1.36l-2.63,5.81c-.21.46-.7.75-1.19.72l-39.75-2.52-42.08,16.06c-.14.05-.29.08-.44.08-.49,0-.96-.3-1.14-.79ZM482.48,298.97l-88.28,16.8,3.33,3.42,83.83-17.29,1.11-2.93Z"/>
      <path d="M327.83,357.5c.11,0,.22-.01.33-.05.34-.09.62-.33.77-.64l2.82-5.81c.27-.56.08-1.22-.43-1.56l-168.45-109.3,222.48-47.77,135.21,84.67-1.9,4.21-65.32,7.98c-.67.08-1.15.69-1.07,1.36.08.67.7,1.16,1.36,1.07l66-8.06c.42-.05.79-.32.97-.71l2.63-5.81c.25-.56.05-1.22-.47-1.54l-136.53-85.5c-.27-.17-.6-.23-.91-.16l-225.85,48.49c-.48.1-.86.49-.95.97-.09.49.12.98.54,1.25l170.02,110.32-1.74,3.59-169.76-110.15c-.57-.37-1.32-.21-1.69.36-.37.57-.21,1.32.36,1.69l170.92,110.91c.2.13.43.2.67.2Z"/>
      <g>
        <g>
          <path class="cls-9" d="M431.72,258.05c-10.87-9.15-20.25-12.05-30.64-20.82-2.12-1.79-6.11-4.67-7.2-7.05-1.4-3.05-2.25-6.69-.91-9.21.54-1.02,4.22-5.17,5.2-5.82l-34.3-21.16c-2.17,2.2-4.49,3.73-6.24,6.27-1.29,1.87-2.5,4.61-2.44,7.06.1,4.19.9,6.74,4.26,10,2.57,2.5,7.46,5.58,10.08,8.12,4.33,4.19,7.66,7.77,12.84,10.97,4.88,3.01,36.05,17.41,46.23,23.98,1.93,1.25,3.55,2.92,4.02,1.13.34-1.26.35-2.44-.9-3.5Z"/>
          <path class="cls-6" d="M387.23,45.14l126.2,90.7c1.53,1.1,2.12,2.8,1.44,4.11l-56.66,108.73c-.69,1.31-2.58,1.56-4.21.56l-133.43-82.04c-1.61-.99-2.26-2.99-1.46-4.47l62.91-116.67c.93-1.72,3.49-2.17,5.23-.92Z"/>
          <path class="cls-9" d="M367.16,196.04s-1.54.79-5.35,5.42c-3.8,4.62-3.82,9.8,0,13.67,6.05,6.13,22.85,18.51,22.85,18.51l49.34,26.57s-35.26-24.52-37.93-27.36c-2.87-3.04-4.43-8.3-2.65-11.59,1.88-3.49,5.2-5.82,5.2-5.82l-31.44-19.39Z"/>
          <polygon class="cls-16" points="462.22 228.6 509.06 138.93 384.64 50.86 333.06 146.53 462.22 228.6"/>
          <path class="cls-6" d="M319.04,165.25l-1.95-2.91c-1-1.5-1.14-3.32-.38-4.75l59.64-110.62c.97-1.79,3.04-2.89,5.34-2.83l3.38.09-66.04,121.02Z"/>
        </g>
        <g>
          <g>
            <path class="cls-9" d="M382.8,236.71s-.06-.05-.16-.13c.29.17.64.37,1.07.6l-.9-.47Z"/>
            <path class="cls-9" d="M430.27,261.57l-43.84-22.96c10.08,5.15,33.6,16.26,42.18,21.8.59.38,1.16.81,1.67,1.16Z"/>
            <path class="cls-9" d="M369.53,225.46c1.16,1.13,2.26,2.21,3.33,3.25-3.51-2.89-7.33-6.1-10.37-8.83,2.44,1.87,5.25,3.85,7.04,5.58Z"/>
            <path class="cls-9" d="M432.63,261.54c.28-1.04.32-2.02-.36-2.92.04.02.07.04.1.05l1.61,1.52-1.39,2.58-.92-.48c.45.09.78-.1.96-.76Z"/>
            <path class="cls-6" d="M362.49,219.88c-1.15-.88-2.22-1.74-3.04-2.54-3.36-3.26-4.16-5.81-4.26-10-.06-2.45,1.14-5.19,2.44-7.06,1.75-2.54,4.07-4.07,6.24-6.27l34.3,21.16c-.98.65-4.65,4.79-5.2,5.82-1.33,2.51-.49,6.16.91,9.21,1.1,2.38,5.08,5.25,7.2,7.05,10.39,8.77,19.77,11.67,30.64,20.82.22.19.4.38.54.58.68.9.63,1.88.36,2.92-.18.66-.51.85-.96.76-.39-.08-.86-.36-1.39-.73-.51-.35-1.07-.77-1.67-1.16-8.58-5.55-32.09-16.65-42.18-21.8-1.08-.55-1.99-1.03-2.73-1.43-.42-.23-.78-.43-1.07-.6-.09-.05-.18-.11-.26-.15-3.79-2.34-6.59-4.89-9.51-7.72-1.08-1.04-2.17-2.12-3.33-3.25-1.78-1.73-4.6-3.7-7.04-5.58Z"/>
          </g>
          <path d="M453.35,250.09l-133.43-82.04c-2.15-1.32-3-4.05-1.9-6.1l62.91-116.67c.58-1.07,1.64-1.85,2.92-2.15,1.43-.33,2.93-.03,4.11.82l126.19,90.7c2.04,1.47,2.78,3.8,1.81,5.67l-56.66,108.73c-.43.83-1.19,1.43-2.13,1.69-.36.1-.73.15-1.11.15-.9,0-1.84-.27-2.69-.8ZM386.52,45.94c-.6-.43-1.39-.59-2.13-.42-.6.14-1.06.47-1.31.92l-62.91,116.67c-.49.9-.02,2.21,1.03,2.85l133.43,82.04c.63.39,1.33.53,1.87.38.29-.08.5-.24.62-.46l56.66-108.73c.39-.75-.06-1.83-1.07-2.55l-126.2-90.7h0Z"/>
          <path d="M465.34,236.02c.4,0,.8-.2,1.03-.57.36-.57.19-1.33-.38-1.69l-137.88-87.65c-.57-.36-1.33-.19-1.69.38-.36.57-.2,1.33.38,1.69l137.88,87.65c.2.13.43.19.66.19Z"/>
          <path d="M433.4,261.28l-49.34-26.57c-.05-.03-.1-.06-.15-.09-.69-.51-16.95-12.51-22.99-18.63-4.26-4.32-4.29-10.18-.07-15.3,3.78-4.59,5.44-5.58,5.74-5.73.59-.3,1.3-.07,1.62.51.32.58.1,1.32-.48,1.65-.01,0-1.51.89-4.99,5.12-3.4,4.13-3.43,8.63-.08,12.03,5.71,5.79,21.45,17.46,22.63,18.33l31.01,16.7c-9.5-6.72-19.71-14.08-21.16-15.61-3.02-3.2-4.96-9.08-2.84-13.01,2-3.7,5.43-6.14,5.58-6.24.55-.39,1.32-.25,1.7.3.39.55.26,1.31-.3,1.7-.03.02-3.11,2.22-4.83,5.4-1.55,2.88.02,7.58,2.47,10.17,2.12,2.25,27.97,20.39,37.74,27.19.53.37.68,1.09.34,1.64-.23.37-.63.58-1.04.58-.2,0-.39-.05-.58-.15Z"/>
          <path d="M432.02,263.87l-49.79-26.08c-.07-.03-.13-.08-.19-.12-.74-.58-18.25-14.37-24.22-20.54-4.13-4.26-4.61-10.78-1.24-16.6,3.26-5.62,7.03-7.33,7.19-7.4.61-.27,1.34,0,1.61.63.27.62,0,1.34-.63,1.61-.03.01-3.19,1.45-6.05,6.39-2.86,4.92-2.52,10.16.87,13.67,5.64,5.82,22.51,19.16,23.89,20.25l48.62,25.46.82-1.52c.32-.59,1.06-.82,1.66-.5.59.32.82,1.06.5,1.66l-1.39,2.58c-.22.41-.64.64-1.08.64-.19,0-.39-.05-.57-.14Z"/>
          <path d="M461.57,229.63l-129.16-82.07c-.54-.34-.72-1.05-.42-1.61l51.58-95.67c.17-.31.46-.53.8-.61.34-.08.7-.01.99.19l124.42,88.06c.5.35.66,1.02.38,1.57l-46.84,89.67c-.16.3-.44.53-.77.62-.1.03-.21.04-.32.04-.23,0-.46-.07-.66-.19ZM385.06,52.66l-50.38,93.45,127.07,80.74,45.72-87.54-122.42-86.65Z"/>
          <path d="M319.04,166.48c.23,0,.47-.07.68-.21.56-.38.71-1.13.34-1.7l-1.94-2.91c-.75-1.12-.87-2.46-.32-3.49l59.64-110.62c.74-1.38,2.42-2.24,4.23-2.19l3.38.09c.66.04,1.24-.52,1.26-1.19.02-.68-.52-1.24-1.19-1.26l-3.38-.09c-2.73-.07-5.27,1.29-6.45,3.48l-59.64,110.62c-.99,1.83-.82,4.13.44,6.01l1.95,2.91c.24.35.62.54,1.02.54Z"/>
        </g>
      </g>
      <g>
        <path class="cls-6" d="M397.39,289.1c4.1-4.86,1.68-12.04-5.5-17.62-3.68-2.86-7.9-4.75-11.68-5.25-3.6-.48-6.81.29-8.81,2.66-4.1,4.86,0,14.57,7.19,20.15,7.18,5.58,14.71,4.91,18.81.06Z"/>
        <path d="M377.83,290.01c-5.06-3.93-8.68-9.8-9.21-14.94-.29-2.78.35-5.19,1.85-6.96,2.15-2.55,5.67-3.65,9.91-3.08,4.05.54,8.41,2.49,12.28,5.49,4.66,3.62,7.47,7.91,7.91,12.08.28,2.72-.49,5.24-2.22,7.3-2.43,2.87-5.77,4.31-9.41,4.31s-7.48-1.4-11.08-4.19ZM372.33,269.68c-1.34,1.59-1.44,3.66-1.28,5.13.46,4.44,3.79,9.78,8.28,13.27,6.26,4.86,13.14,4.96,17.13.23,1.32-1.56,1.87-3.4,1.66-5.46-.36-3.44-2.9-7.24-6.97-10.4-3.48-2.7-7.52-4.53-11.09-5-.57-.08-1.19-.13-1.83-.13-2.05,0-4.33.51-5.89,2.36Z"/>
        <path d="M397.39,290.32c.26,0,.53-.08.76-.26.53-.42.62-1.19.21-1.72-13.54-17.22-26.13-20.51-26.66-20.64-.65-.16-1.32.24-1.48.89-.16.65.24,1.32.89,1.48.14.03,12.37,3.29,25.33,19.78.24.31.6.47.96.47Z"/>
        <path d="M384.9,280.51c-1.41-1.47-3.03-2.77-4.81-3.85-.75-.46-1.28-1.2-1.46-2.04-.17-.83.01-1.66.51-2.36,1.01-1.41,2.98-1.8,4.49-.88,2.26,1.38,4.33,3.02,6.13,4.9.6.63.9,1.44.85,2.29-.05.86-.46,1.63-1.14,2.19-.59.49-1.36.75-2.14.75-.92,0-1.81-.37-2.43-1.02ZM381.13,273.69c-.12.17-.12.34-.1.44.04.17.15.33.33.44,1.96,1.19,3.75,2.62,5.31,4.25.3.31.91.35,1.25.06.15-.12.24-.28.25-.45,0-.11-.02-.28-.18-.44-1.65-1.72-3.55-3.24-5.64-4.51-.15-.09-.32-.13-.49-.13-.29,0-.57.12-.73.34Z"/>
      </g>
      <g>
        <polygon class="cls-4" points="357.11 368.57 359.04 368.33 362.06 386.24 360.5 388.13 357.11 368.57"/>
        <polygon class="cls-8" points="357.11 368.57 350.36 390.22 360.5 388.13 357.11 368.57"/>
        <path d="M349.46,391.04c-.29-.32-.39-.77-.26-1.19l6.75-21.65c.17-.54.66-.88,1.25-.86.56.04,1.03.45,1.13,1.01l3.4,19.56c.11.65-.31,1.27-.96,1.41l-10.14,2.09c-.08.02-.16.03-.25.03-.34,0-.67-.14-.91-.4ZM356.77,373.77l-4.62,14.83,6.95-1.43-2.33-13.4Z"/>
        <path d="M360.5,389.35c.35,0,.7-.15.95-.45l1.55-1.89c.23-.27.32-.63.26-.98l-3.01-17.91c-.11-.64-.71-1.1-1.35-1.01l-1.94.24c-.67.08-1.15.69-1.07,1.36.08.67.69,1.16,1.36,1.07l.77-.09,2.73,16.21-1.2,1.45c-.43.52-.35,1.29.17,1.72.23.19.5.28.78.28Z"/>
      </g>
      <path d="M484.4,298.58c.56,0,1.07-.39,1.19-.96.15-.66-.27-1.31-.93-1.46l-40.34-8.85,77.93-9.52c.67-.08,1.15-.69,1.07-1.36-.08-.67-.69-1.15-1.36-1.07l-85.06,10.39c-.59.07-1.05.56-1.07,1.16-.03.59.38,1.12.96,1.25l47.36,10.39c.09.02.18.03.26.03Z"/>
    </g>
    <g>
      <polygon class="cls-4" points="507.96 255.29 507.96 245.37 515.15 248.48 507.96 255.29"/>
      <path d="M507.48,256.41c-.45-.19-.74-.63-.74-1.12v-9.92c0-.41.21-.8.55-1.02.34-.23.78-.26,1.16-.1l7.19,3.11c.38.16.65.5.72.91.07.4-.06.82-.36,1.1l-7.19,6.81c-.23.22-.53.34-.84.34-.16,0-.33-.03-.48-.1ZM509.19,247.24v5.21l3.78-3.58-3.78-1.63Z"/>
    </g>
    <g>
      <polygon class="cls-8" points="436.57 429.45 446.74 415.39 461.33 432.68 436.57 429.45"/>
      <path d="M461.18,433.89l-24.77-3.23c-.43-.05-.79-.33-.97-.73-.17-.4-.12-.85.13-1.2l10.18-14.05c.22-.3.57-.49.95-.5.37-.03.74.15.98.43l14.59,17.29c.33.39.38.93.14,1.38-.22.4-.63.64-1.07.64-.05,0-.11,0-.16-.01ZM438.76,428.5l19.6,2.56-11.55-13.68-8.05,11.12Z"/>
    </g>
    <g>
      <path class="cls-8" d="M447.74,366.89c1.96-8.69,40.12-16.33,45.84-22.88l-40.1-22.61,112.29-31.64c-7.84-1.81-34.48-3.33-34.48-3.33-.22-1.17,3.11-2.97,4.21-3.42,9.37-3.78,13.47-6.9,22.84-10.68,12.26-4.94,59.5-33.33,59.5-33.33,37.49-1.69,112.32-6.55,148.65-7.87l-7.15.96c2.05.06,4.1.14,6.15.24-25.63,30.81-105.03,126.25-131.89,158.53-.76.46-187.55.19-193.91.25,2.69-8.08,5.37-16.15,8.06-24.23Z"/>
      <g>
        <g>
          <path class="cls-8" d="M609.85,556c-.4,2.88-2.85,5.23-5.46,5.23-.74,0-1.41-.19-2-.56-1.31-.84-1.97-2.5-1.72-4.33l22.96-165.31c3.05-.05,6.1-.1,9.15-.15l-22.94,165.12Z"/>
          <path d="M621.16,391.07c.83-.01,1.65-.03,2.48-.04l-22.96,165.31c-.25,1.83.4,3.49,1.72,4.33.59.37,1.26.56,1.99.56,2.62,0,5.07-2.35,5.47-5.23l22.94-165.12c.27,0,.54-.01.81-.01l1.99-2.4-23.32,167.87c-.56,4.05-4.1,7.34-7.88,7.34-1.2,0-2.34-.33-3.32-.95-2.13-1.36-3.21-3.94-2.83-6.73l22.91-164.94Z"/>
          <path class="cls-8" d="M843.72,439.99c1.54,2.48,1.15,5.85-.85,7.52-.57.47-1.21.76-1.9.84-1.55.19-3.11-.66-4.09-2.23l-105.66-172.59,6.05-7.27c.17.2.33.4.47.63l105.98,173.1Z"/>
          <path d="M731.22,273.53l105.66,172.59c.97,1.57,2.53,2.43,4.09,2.23.69-.09,1.33-.37,1.9-.84,2.01-1.67,2.39-5.04.85-7.52l-105.98-173.1c-.14-.23-.31-.43-.47-.63l1.59-1.91c.36.38.68.8.96,1.26l105.98,173.1c2.15,3.47,1.54,8.27-1.37,10.69-.92.77-2.01,1.25-3.16,1.39-.25.03-.5.05-.74.05-2.25,0-4.39-1.26-5.73-3.42l-105.23-171.89,1.65-1.99Z"/>
        </g>
        <polygon class="cls-4" points="439.68 391.12 618.41 391.12 633.38 391.12 633.6 390.87 765.48 232.34 766.48 231.14 766.48 232.39 766.48 232.48 766.48 239.56 633.57 401.17 439.49 399.55 439.49 391.12 439.68 391.12"/>
      </g>
      <polygon class="cls-4" points="550.14 294.17 529.1 292.76 529.1 286.43 563.81 289.38 550.14 294.17"/>
      <path d="M587.37,256.51c.2,0,.39-.05.58-.14l30.23-16.15,148.38-7.85c.67-.04,1.19-.61,1.16-1.29-.04-.67-.62-1.2-1.29-1.16l-148.65,7.87c-.18,0-.35.06-.51.14l-30.47,16.28c-.6.32-.82,1.06-.5,1.66.22.41.64.65,1.08.65Z"/>
      <path d="M550.14,295.39c.64,0,1.18-.5,1.22-1.14.05-.67-.46-1.26-1.14-1.3l-19.9-1.33v-5.18c0-.68-.55-1.22-1.22-1.22s-1.22.55-1.22,1.22v6.32c0,.64.5,1.18,1.14,1.22l21.04,1.41s.06,0,.08,0Z"/>
      <path d="M633.57,402.4c.7-.01,1.24-.57,1.22-1.25l-.18-10.05c-.01-.67-.56-1.2-1.22-1.2-.7.01-1.24.57-1.22,1.25l.18,10.05c.01.67.56,1.2,1.22,1.2Z"/>
      <g>
        <g>
          <path class="cls-3" d="M518.74,349.52c-4.22,2.67-5.68,5.66-5.42,9.14.42,5.8,7.83,9.13,16.86,7.58,4.08-.7,10.42-3.23,10.69-3.34.39-.16.72-.43.96-.75.38-.53.53-1.21.34-1.84-.3-1.02-1.38-1.52-2.41-1.11-.06.03-6.21,2.48-9.87,3.1-7.21,1.24-12.49-1.27-12.71-4.3-.13-1.81,2.38-4.53,5.12-6.27l-3.56-2.21Z"/>
          <g>
            <path class="cls-12" d="M518.74,349.52c-4.22,2.67-5.68,5.66-5.42,9.14.42,5.8,7.83,9.13,16.86,7.58,4.08-.7,10.42-3.23,10.69-3.34.39-.16.72-.43.96-.75.38-.53.53-1.21.34-1.84-.3-1.02-1.38-1.52-2.41-1.11-.06.03-6.21,2.48-9.87,3.1-7.21,1.24-12.49-1.27-12.71-4.3-.13-1.81,2.38-4.53,5.12-6.27l-3.56-2.21Z"/>
            <path d="M525.88,367.84c1.46,0,2.97-.13,4.5-.39,4.24-.73,10.67-3.3,10.94-3.41.59-.24,1.11-.64,1.5-1.17.62-.85.82-1.94.53-2.91-.24-.82-.79-1.47-1.55-1.83-.77-.37-1.67-.39-2.49-.07-.06.03-6.12,2.43-9.62,3.04-5,.85-8.54-.21-10.17-1.49-.48-.37-1.06-.97-1.11-1.7-.07-1.02,1.78-3.39,4.55-5.15.57-.36.74-1.12.38-1.69-.36-.57-1.12-.74-1.69-.38-2.21,1.4-5.89,4.53-5.69,7.39.09,1.28.8,2.48,2.04,3.45,2.65,2.08,7.17,2.81,12.09,1.97,3.82-.65,10.06-3.15,10.12-3.18.18-.07.37-.07.51,0,.09.04.21.14.27.33.07.24.01.54-.16.78-.11.15-.26.27-.42.34-.07.03-6.45,2.58-10.44,3.27-5.26.9-10.11.09-12.99-2.16-1.5-1.17-2.32-2.62-2.44-4.3-.24-3.27,1.26-5.74,4.86-8.02.57-.36.74-1.12.38-1.69-.36-.57-1.12-.74-1.69-.38-4.33,2.74-6.29,6.1-5.99,10.27.17,2.37,1.34,4.46,3.37,6.05,2.53,1.98,6.25,3.04,10.42,3.04Z"/>
          </g>
          <path class="cls-13" d="M537.97,314.61s30.59,29.24,30.72,29.33c1.57,1.13.46,7.7-4.19,14.12-4.66,6.43-11.1,10.29-12.67,9.16-.13-.1-37.46-20.04-37.46-20.04l23.59-32.58Z"/>
          <path class="cls-15" d="M514.38,347.19c2.52,1.83,9.85-3.98,16.36-12.98,6.52-9,9.75-17.77,7.23-19.6-2.52-1.83-9.85,3.99-16.36,12.98-6.51,9-9.75,17.77-7.23,19.6Z"/>
          <path class="cls-7" d="M503.96,338.86c.56-1.61,2.84-1.88,4.37-1.15,1.54.73,2.67,2.11,4.12,3,1.97,1.22,4.41,1.47,6.7,1.16,2.29-.31,4.48-1.14,6.64-1.96l-5.54,5.47-4.9,1.5c-3.2-.77-6.27-2.09-9.02-3.9-.71-.47-1.42-.99-1.91-1.69-.49-.7-.74-1.62-.45-2.43Z"/>
          <path d="M552.57,368.65c1.58,0,3.56-1.08,5.13-2.15,2.82-1.92,5.58-4.66,7.8-7.71,4.6-6.35,6.48-13.82,3.98-15.78-.99-.92-20.4-19.47-30.66-29.28-.49-.47-1.26-.45-1.73.04-.47.49-.45,1.26.04,1.73,30.65,29.29,30.76,29.38,30.85,29.44.59.74.03,6.21-4.46,12.42-4.38,6.04-9.89,9.14-11.04,8.84,0-.02-.12-.1-37.51-20.08-.6-.32-1.34-.09-1.66.5-.32.6-.09,1.34.5,1.66,12.52,6.69,36.2,19.35,37.38,20,.4.27.87.38,1.39.38Z"/>
          <path d="M515.47,348.73c4.13,0,10.93-6.43,16.27-13.8,3.21-4.44,5.76-8.98,7.16-12.78,1.62-4.39,1.55-7.25-.2-8.52-1.75-1.27-4.5-.44-8.16,2.46-3.18,2.52-6.69,6.35-9.91,10.79-3.35,4.62-5.94,9.31-7.31,13.19-.22.64.11,1.34.75,1.56.64.23,1.34-.11,1.56-.75,1.27-3.62,3.82-8.2,6.98-12.57,3.09-4.26,6.44-7.93,9.45-10.31,2.98-2.37,4.75-2.73,5.21-2.4.46.33.66,2.12-.66,5.69-1.33,3.6-3.76,7.93-6.85,12.19-7.17,9.9-13.44,13.58-14.65,12.71-.55-.4-1.31-.28-1.71.27-.4.55-.27,1.31.27,1.71.52.37,1.12.55,1.8.55Z"/>
        </g>
        <path class="cls-7" d="M498.14,325.49c-3.52-8.87-10.83,4.47,4.01,5.79-1.42-1.9-3-3.57-4.01-5.79Z"/>
        <path d="M502.04,332.5c-7.1-.63-9.85-4.01-10.04-6.96-.14-2.08.96-3.86,2.62-4.23.68-.16,3.03-.34,4.65,3.7.69,1.52,1.69,2.77,2.75,4.11.37.47.75.94,1.12,1.43.29.39.32.91.09,1.33-.22.39-.63.63-1.07.63-.04,0-.07,0-.11,0ZM495.16,323.7c-.34.08-.79.72-.72,1.68.1,1.54,1.46,3.28,4.81,4.17-.82-1.07-1.61-2.22-2.24-3.61-.67-1.68-1.39-2.25-1.77-2.25-.03,0-.05,0-.07,0Z"/>
        <path d="M515.99,348.45c.55,0,1.06-.38,1.19-.94.16-.66-.25-1.32-.91-1.47-2.96-.71-6.51-2.27-9.27-4.09-.7-.46-1.23-.87-1.58-1.37-.31-.44-.43-.96-.3-1.32.03-.09.13-.37.58-.56.59-.25,1.46-.2,2.11.11.73.35,1.4.91,2.1,1.5.59.5,1.2,1.01,1.9,1.44,2.57,1.59,5.5,1.61,7.51,1.33,2.45-.33,4.72-1.2,6.91-2.03.63-.24.95-.95.71-1.58-.24-.63-.95-.95-1.58-.71-2.06.79-4.2,1.6-6.37,1.89-2.27.31-4.37-.04-5.89-.99-.55-.34-1.07-.77-1.61-1.23-.79-.66-1.61-1.35-2.62-1.83-1.29-.61-2.86-.68-4.1-.16-.94.39-1.64,1.1-1.95,2-.39,1.11-.16,2.44.61,3.54.61.86,1.44,1.47,2.24,2.01,2.98,1.96,6.83,3.65,10.04,4.42.1.02.19.03.29.03Z"/>
      </g>
      <g>
        <path class="cls-11" d="M534.45,408.82l57.16,16.67s-10.45,28.73-32.57,50.02c-13.57,13.05-33.8,24.12-33.8,24.12l-66.07-39.6s31.96,0,55.31-22.33c10.52-10.06,19.97-28.88,19.97-28.88Z"/>
        <path d="M524.6,500.68l-66.07-39.6c-.47-.28-.7-.84-.55-1.38.15-.53.63-.9,1.18-.9.31,0,31.76-.28,54.47-21.99,10.24-9.79,19.63-28.36,19.73-28.55.27-.53.87-.79,1.44-.62l57.16,16.67c.32.09.6.32.75.62.15.3.17.65.06.97-.11.29-10.8,29.24-32.87,50.48-13.53,13.02-33.86,24.2-34.06,24.31-.18.1-.38.15-.59.15-.22,0-.44-.06-.63-.17ZM535.07,410.28c-2.05,3.93-10.4,19.36-19.76,28.31-18.54,17.73-42.68,21.6-52.13,22.44l62.06,37.2c3.47-1.95,20.94-12.05,32.93-23.58,19.1-18.37,29.53-42.66,31.8-48.34l-54.91-16.02Z"/>
      </g>
      <g>
        <path class="cls-11" d="M522.1,244.25l26.43-18.03c5.94,5.31,13.33,11.69,20.63,17.38,5.45,4.25,13.83,9.3,22.57,14.15l-22.71,30.21c-1.12-.32-9.03-2.71-15.11-6.77-6.56-4.37-16.39-10.38-24.81-21.53-8.41-11.15-6.99-15.41-6.99-15.41Z"/>
        <path class="cls-11" d="M558.33,322.46s3.11-3.14,2.24-6.31l2.51-2.73-1.64-3.93,3.28-3.44-3.28-3.48,1.99-7.19,5.58-7.42,22.71-30.21c17.39,9.65,36.19,18.47,36.19,18.47l33.67-47.37h29.67l-.66,6.43,1.64,1.03-2.82,4.55,1.64,2.9c.12.21.08.47-.08.64l-2.78,2.88,2.16,2.31-2.16,4.2,1.26,2.49-2.29,3.57,1.04,4.6-41.09,72.73-40.39-3.14c-2.87,2.48-5.47,4.89-6.79,6.13-.49.46-1.24.38-1.62-.18-1.17-1.67-3.29-4.18-5.79-7.06l-31.96-2.48-2.24-2.29,3.2-1.69-3.2-4.02Z"/>
        <path class="cls-11" d="M591.73,257.74c-8.74-4.85-17.12-9.9-22.57-14.15-7.3-5.69-14.69-12.06-20.63-17.37-7.32-6.55-12.44-11.47-12.44-11.47,0,0,10.49-6.56,18.8-17.05,9.22-11.64,21.86-29.72,21.86-29.72,0,0,24.04,26.66,44.03,41.53,19.99,14.86,45.35,12.96,45.35,12.96l-4.54,6.39-33.67,47.37s-18.8-8.82-36.19-18.47Z"/>
        <path d="M647.01,337.43c.55,0,1.05-.38,1.19-.94l1.58-6.56c.07-.28.03-.58-.1-.84l-1.36-2.72,1.44-4.62c.08-.27.07-.56-.04-.83l-1.41-3.46,1.44-4.32c.08-.24.08-.51,0-.75l-1.43-4.6,2.94-5.67c.31-.6.08-1.34-.52-1.65-.6-.31-1.34-.08-1.65.52l-3.17,6.12c-.15.29-.18.62-.08.93l1.47,4.7-1.46,4.38c-.09.28-.08.58.03.85l1.42,3.47-1.45,4.67c-.09.3-.07.63.07.91l1.38,2.76-1.48,6.12c-.16.66.25,1.32.9,1.48.1.02.19.03.29.03Z"/>
        <g>
          <path d="M647.01,307.5c.63,0,1.16-.48,1.22-1.12.06-.67-.44-1.26-1.12-1.32l-79.34-6.61c-.67-.07-1.26.44-1.32,1.12-.06.67.44,1.26,1.12,1.32l79.34,6.61s.07,0,.1,0Z"/>
          <path d="M637.66,318.38c.64,0,1.18-.49,1.22-1.14.05-.67-.46-1.26-1.14-1.3l-71.78-4.88c-.67-.03-1.26.46-1.3,1.14-.05.67.46,1.26,1.14,1.3l71.78,4.88s.06,0,.08,0Z"/>
          <path d="M647.67,313.88c.63,0,1.17-.48,1.22-1.12.05-.67-.45-1.26-1.12-1.32l-79.34-6.48c-.68-.04-1.26.45-1.32,1.12-.05.67.45,1.26,1.12,1.32l79.34,6.48s.07,0,.1,0Z"/>
          <path d="M582.85,323.17c.64,0,1.17-.49,1.22-1.14.05-.67-.46-1.26-1.13-1.31l-20.09-1.42c-.7-.05-1.26.46-1.31,1.13-.05.67.46,1.26,1.13,1.31l20.09,1.42s.06,0,.09,0Z"/>
          <path d="M647.01,327.71c.64,0,1.17-.49,1.22-1.14.05-.67-.46-1.26-1.13-1.31l-26.23-1.86c-.7-.05-1.26.46-1.31,1.13-.05.67.46,1.26,1.13,1.31l26.23,1.86s.06,0,.09,0Z"/>
          <g>
            <path d="M562.46,294.64l28.1-37.37c.72.4,1.42.82,2.08,1.31l-26.87,35.74,83.73,5.98,39.68-70.23h-28.22c.3-.32.62-.62.91-.95.23-.25.45-.51.66-.78.15-.18.32-.37.43-.59.02-.04.03-.09.04-.13h28.27c.43,0,.84.23,1.06.61.22.38.22.84,0,1.22l-41.09,72.73c-.22.39-.63.62-1.06.62-.03,0-.06,0-.09,0l-86.74-6.2c-.45-.03-.84-.3-1.03-.71-.19-.41-.13-.88.14-1.24Z"/>
            <path d="M592.53,334.17c.63,0,1.17-.49,1.22-1.13.05-.67-.45-1.26-1.12-1.31l-31.5-2.45-.77-.79,1.74-.92c.32-.17.55-.47.63-.83.08-.36-.01-.73-.24-1.01l-2.57-3.24c.91-1.18,2.33-3.47,1.98-5.97l2.09-2.27c.32-.35.41-.86.23-1.3l-1.33-3.2,2.73-2.87c.45-.47.45-1.21,0-1.68l-2.81-2.98,1.81-6.53c.18-.65-.2-1.33-.85-1.51-.65-.18-1.32.2-1.51.85l-1.99,7.19c-.11.41,0,.85.29,1.17l2.48,2.64-2.48,2.6c-.33.35-.43.87-.24,1.31l1.34,3.21-1.98,2.16c-.29.31-.39.75-.28,1.15.67,2.42-1.9,5.1-1.93,5.12-.44.44-.47,1.14-.09,1.62l2.28,2.87-1.89,1c-.34.18-.58.51-.64.89-.06.38.06.77.33,1.05l2.24,2.29c.21.21.48.34.78.36l31.96,2.48s.06,0,.1,0Z"/>
            <path d="M647.12,338.41c.44,0,.85-.23,1.07-.62l41.09-72.73c.15-.26.2-.57.13-.87l-.93-4.1,2.02-3.14c.23-.36.26-.83.06-1.21l-.98-1.93,1.87-3.65c.24-.46.16-1.02-.19-1.39l-1.37-1.47,1.97-2.05c.54-.56.65-1.42.27-2.09l-1.28-2.28,2.44-3.93c.35-.57.18-1.32-.39-1.68l-1-.62.58-5.68c.07-.67-.42-1.27-1.09-1.34-.67-.08-1.27.42-1.34,1.09l-.66,6.43c-.05.46.17.91.57,1.16l.61.38-2.18,3.51c-.24.38-.25.86-.03,1.25l1.39,2.46-2.43,2.52c-.45.47-.46,1.21-.01,1.68l1.57,1.69-1.77,3.44c-.18.35-.18.76,0,1.11l.94,1.86-1.92,2.98c-.18.28-.24.61-.16.93l.93,4.14-40.47,71.64-39.61-3.08c-.68-.05-1.26.45-1.31,1.13-.05.67.45,1.26,1.12,1.31l40.39,3.14s.06,0,.09,0Z"/>
          </g>
          <path d="M599.2,341.7c.58,0,1.14-.22,1.58-.63,2.43-2.29,10.71-9.96,15.38-12.75,5.85-3.5,11.96-10.76,12.22-11.07.43-.52.37-1.29-.15-1.72-.52-.43-1.29-.37-1.72.15-.06.07-6.11,7.26-11.6,10.54-4.71,2.81-12.49,9.95-15.72,12.99-1.37-2.04-4.17-5.26-7.41-8.99-1.67-1.92-3.43-3.94-5.14-5.97-6.12-7.24-14.27-12.41-14.62-12.63-.57-.36-1.33-.19-1.69.38-.36.57-.19,1.33.38,1.69.08.05,8.19,5.2,14.05,12.14,1.72,2.03,3.49,4.07,5.16,6,3.22,3.7,6,6.89,7.38,8.88.39.56.99.92,1.66.99.08,0,.16.01.23.01Z"/>
        </g>
        <path d="M520.94,243.86c.08-.25.25-.47.47-.62l26.43-18.03c.56-.38,1.32-.24,1.7.32s.24,1.32-.32,1.7l-25.98,17.72c-.04,1.2.4,5.44,6.83,13.97,7.62,10.09,16.44,15.91,22.88,20.17l1.63,1.08c6.31,4.21,14.82,6.63,14.91,6.65.06.02.11.06.16.08-.03.06-.07.12-.1.18-.35.6-.72,1.19-1.08,1.78-.04.06-.06.12-.07.18-1.83-.54-9.27-2.9-15.19-6.85l-1.62-1.07c-6.59-4.35-15.61-10.31-23.48-20.73-8.56-11.33-7.34-16.03-7.18-16.53Z"/>
        <path d="M627.4,277.32c-1.74-.82-42.76-20.12-58.99-32.76-16.17-12.6-33-28.77-33.17-28.93-.27-.26-.41-.63-.37-1.01.04-.37.25-.71.57-.91.1-.06,10.42-6.58,18.49-16.77,9.09-11.48,21.69-29.48,21.81-29.66.21-.31.55-.5.93-.52.38-.03.73.12.98.4.24.26,24.19,26.74,43.85,41.36,19.38,14.4,44.29,12.73,44.53,12.72.47-.04.92.21,1.16.62.23.41.21.92-.07,1.31l-38.21,53.76c-.24.33-.61.52-1,.52-.17,0-.35-.04-.52-.12ZM620.04,210.48c-17.52-13.02-38.35-35.3-43.18-40.56-3.03,4.3-13.28,18.76-21.02,28.53-6.71,8.47-14.7,14.34-17.8,16.46,4,3.79,18.17,17.04,31.86,27.71,14.69,11.44,51.32,29.05,57.61,32.04l36.18-50.9c-6.98.08-26.99-.9-43.65-13.29Z"/>
      </g>
      <g>
        <path class="cls-11" d="M678.95,396.15s2.85,17.32,23.05,37.59c20.2,20.27,51.22,33.41,51.22,33.41l-50.94,37.4s-31.8-19.48-45.82-33.12c-19.07-18.56-26.18-40.26-26.18-40.26l48.66-35.02Z"/>
        <path d="M701.65,505.59c-.32-.2-32.08-19.71-46.03-33.29-19.06-18.55-26.42-40.54-26.49-40.76-.17-.51.01-1.06.45-1.37l48.66-35.02c.34-.25.79-.3,1.18-.14.39.16.67.51.74.93.03.17,3.06,17.22,22.71,36.93,19.8,19.86,50.53,33.01,50.83,33.14.4.17.69.55.74.98.05.44-.14.87-.49,1.13l-50.94,37.4c-.21.16-.47.24-.72.24-.22,0-.44-.06-.64-.18ZM701.14,434.6c-16.65-16.7-21.65-31.31-22.97-36.38l-46.41,33.41c1.53,4.14,9.05,22.84,25.57,38.93,12.61,12.28,40.17,29.58,44.9,32.52l48.58-35.67c-7.15-3.27-32.44-15.52-49.67-32.8Z"/>
        <path d="M706.11,515.66c.56,0,1.07-.39,1.19-.97.14-.66-.28-1.31-.94-1.45-11.91-2.57-23.25-7.94-32.78-15.54-.53-.42-1.3-.33-1.72.19-.42.53-.33,1.3.19,1.72,9.82,7.83,21.5,13.37,33.79,16.02.09.02.17.03.26.03Z"/>
        <path d="M713.95,526.48c.6,0,1.13-.44,1.21-1.06.09-.67-.38-1.29-1.04-1.38-11.09-1.53-22.07-5.32-31.75-10.95-.58-.34-1.33-.14-1.67.44-.34.58-.14,1.33.44,1.67,9.95,5.79,21.25,9.68,32.65,11.26.06,0,.11.01.17.01Z"/>
      </g>
      <path d="M633.56,402.4l-194.08-1.63c-.67,0-1.21-.55-1.21-1.22v-8.43c0-.68.55-1.22,1.22-1.22h193.33l132.73-159.54c.33-.4.87-.54,1.36-.37.48.18.81.64.81,1.15v8.43c0,.28-.1.56-.28.78l-132.92,161.61c-.23.28-.58.45-.94.45h-.01ZM765.26,234.52l-130.94,157.38c-.23.28-.58.44-.94.44h-192.68v5.99l192.29,1.61,132.27-160.82v-4.6Z"/>
      <polygon class="cls-4" points="488.07 347.23 453.48 327.72 453.48 321.4 493.2 343.8 488.07 347.23"/>
      <path d="M488.07,348.45c.43,0,.84-.22,1.07-.62.33-.59.12-1.33-.46-1.67l-33.97-19.15v-5.61c0-.68-.55-1.22-1.22-1.22s-1.22.55-1.22,1.22v6.32c0,.44.24.85.62,1.07l34.59,19.5c.19.11.4.16.6.16Z"/>
      <path d="M439.48,392.34c.51,0,.99-.33,1.16-.84l9.01-27.24,45.38-18.56c.43-.18.73-.59.76-1.06.03-.47-.21-.91-.62-1.14l-38.52-21.72,110.05-31.01c.57-.16.94-.7.89-1.29-.06-.59-.52-1.05-1.11-1.1l-33.14-2.81,14.51-7.76c.6-.32.82-1.06.5-1.66-.32-.6-1.06-.82-1.66-.5l-18.16,9.71c-.48.26-.73.79-.62,1.33.11.53.55.93,1.09.97l30.55,2.59-106.4,29.98c-.48.13-.82.54-.88,1.03-.06.49.18.97.61,1.21l38.89,21.92-43.56,17.82c-.33.14-.59.41-.7.75l-9.18,27.77c-.21.64.14,1.33.78,1.55.13.04.26.06.38.06Z"/>
    </g>
    <g>
      <g>
        <g>
          <path class="cls-18" d="M129.95,517.09c-.05.19-.11.39-.15.58-.81,3.76.3,10.97.4,14.42-.3.08.71,1.78.41,1.85.09.83.34,1.44.43,2.27,1.51,5.43,6.47,13.95-1.72,14.98-3.46.68-6.76,1.06-10.2.29-3.82-.86-6.58-2.25-9.49-3.94-6.25-10.41,1.42-21.68,1.4-32.7,5.09,2.32,13.51,3.79,18.92,2.26Z"/>
          <g>
            <path class="cls-2" d="M102.65,552.01c.25-1.23.67-2.69,1.27-4.8,1.3-4.62,3.78-12.04,4.82-18.2-.55,3.98-1.55,13.3.45,16.76,3.54,6.12,17.53,8,23.1,4.58,2.12-1.3,1.54-4.84.89-7.04,2.18,5.32,5.02,8.81,6.06,12.18,0,0,2.87,5.48.99,8.46-1.89,3-9.59,4.36-16.21,4.12-6.63-.24-22.14-4.73-22.81-8.86-.36-2.17,1.45-7.21,1.45-7.21Z"/>
            <path class="cls-2" d="M133.18,543.31c-.22-.54-.44-1.09-.64-1.67-.21-.58.23.28.64,1.67Z"/>
            <path class="cls-2" d="M108.74,529.01c.16-1.14.28-1.84.28-1.84-.07.6-.17,1.22-.28,1.84Z"/>
          </g>
          <g>
            <path d="M108.97,528.77c.61,0,1.14-.45,1.21-1.07.16-1.34.33-2.55.49-3.73.62-4.54,1.16-8.47,1.21-16.46,0-.68-.54-1.23-1.21-1.23-.68,0-1.23.54-1.23,1.22-.05,7.83-.58,11.68-1.19,16.14-.16,1.19-.33,2.41-.49,3.76-.08.67.39,1.28,1.06,1.36.05,0,.1,0,.15,0Z"/>
            <path d="M124.57,565.66c-6.27-.23-22.29-4.8-23.15-10.04-.42-2.57.08-4.34,1.17-8.21l.15-.53c.32-1.15.72-2.48,1.15-3.91,1.27-4.23,2.8-9.34,3.59-13.81.15-1.1.28-1.89.33-2.2.11-.66.72-1.11,1.38-1.01.66.1,1.12.7,1.04,1.36-.08.7-.19,1.42-.32,2.16-.63,4.71-1.3,12.85.34,15.69,1.22,2.11,4.17,3.89,8.08,4.88,5.06,1.28,10.54.98,13.32-.73,1.36-.84.91-3.67.38-5.56-.22-.54-.44-1.11-.65-1.7-.43-1.22.51-1.67.61-1.71.59-.26,1.32.04,1.61.61.01.02.36.8.71,1.93,1.05,2.55,2.26,4.67,3.34,6.59,1.96,3.44,3.64,6.41,3.09,9.87-.71,4.48-8.93,6.34-15.12,6.34-.36,0-.72,0-1.07-.02ZM132.93,551.4c-3.36,2.06-9.47,2.47-15.21,1.02-4.62-1.17-8.03-3.31-9.6-6.03-.69-1.2-1.07-2.94-1.24-4.91-.22.75-.44,1.49-.66,2.2-.43,1.42-.82,2.73-1.14,3.87l-.15.53c-1.05,3.73-1.44,5.12-1.11,7.15.49,2.99,13.89,7.73,20.82,7.99,6.67.24,13.3-1.83,13.68-4.26.42-2.61-.93-4.99-2.8-8.28-.28-.49-.56-.99-.85-1.51-.31.89-.86,1.68-1.75,2.23Z"/>
            <path d="M132.54,542.87c.14,0,.27-.02.41-.07.64-.22.97-.92.74-1.56-1.99-5.61-3.92-15.71-1.86-31.92.08-.67-.39-1.28-1.06-1.37-.68-.07-1.28.39-1.37,1.06-1.68,13.21-.99,24.63,1.98,33.04.18.5.65.81,1.15.81Z"/>
            <path d="M125.52,569.33c6.41,0,13.65-1.41,15.73-4.72,2.2-3.48-.6-9.06-.93-9.68-.31-.6-1.05-.83-1.65-.52-.6.31-.83,1.05-.52,1.65.7,1.35,2.26,5.3,1.03,7.24-1.42,2.25-8.06,3.8-15.13,3.55-7.24-.26-21.17-4.91-21.65-7.83-.22-1.35.74-4.76,1.39-6.6.23-.64-.1-1.34-.74-1.56-.63-.23-1.34.11-1.56.74-.2.55-1.9,5.41-1.5,7.82.9,5.5,18.19,9.67,23.98,9.88.51.02,1.03.03,1.55.03Z"/>
          </g>
        </g>
        <path class="cls-17" d="M149.57,243.78c1.09.7,2.31,1.12,3.58,1.38,16.84,3.46,37.9,5.39,54.94,3.12,2.68-.36,5.49-5.51,7.05-8.88l3.1-.06c2.01,2.82,5.25,6.63,7.77,5.87,1.87-.56,6.08-4.65,7.31-6.16,0,0,59.57-8.74,78.37-12.42,18.8-3.68,32.01-6.23,38.47,7.68,26.58,57.26,47.38,98.35,52.81,108.98.88,1.73.63,3.81-.63,5.28-.4.47-.87.99-1.39,1.54-3.56,3.76-9.76,8.99-17.97,10.79-.24.05-.5.08-.75.1-2.27.18-4.9-.94-6.15-2.77-10.52-15.27-44.91-63.45-48.79-87.87-.19-1.21-1.47-1.9-2.6-1.44-9.62,3.97-46.61,19.32-61.07,23.09-50.27,13.11-54.2,9.03-56.39,10.93-15.75,29.7-27.04,51.63-38.11,83.38-3.76,10.78-8.71,21.09-12.97,31.68-12.4,30.8-18.83,63.66-23.49,96.54-.15,1.05-.87,1.91-1.87,2.27-.27.1-.55.19-.84.27-5.41,1.53-13.83.06-18.92-2.26-2.64-1.2-4.38-2.63-4.34-3.99.11-3.83,1.72-18.96,2.83-27.25,2.54-18.92,3.61-45.7,7.73-64.36,3.47-15.67,10.06-23.21,11.96-39.14,3.01-25.28,2.45-50.87,5.05-76.19,2.17-21.17,6.55-42.1,13.03-62.37.53.82,1.27,1.58,2.3,2.24Z"/>
        <path class="cls-5" d="M124.77,518.92c2.39,0,4.62-.29,6.43-.95,1.43-.52,2.45-1.77,2.66-3.25,3.87-27.36,10.03-63.02,23.41-96.25,1.56-3.87,3.24-7.78,4.87-11.55,2.82-6.55,5.74-13.32,8.13-20.18,10.77-30.9,29.15-72.13,40.07-84.88.44-.51.38-1.29-.13-1.73-.51-.44-1.28-.38-1.73.13-11.1,12.97-29.68,54.56-40.52,85.67-2.36,6.78-5.26,13.51-8.06,20.02-1.63,3.79-3.32,7.71-4.89,11.61-13.47,33.48-19.67,69.33-23.56,96.82-.08.59-.49,1.08-1.08,1.3-6.09,2.23-17.16-.37-21.16-3.25-.97-.7-1.31-1.27-1.3-1.54.1-3.66,2.27-34.23,3.05-43.04,3.72-41.89,10.58-60.42,15.12-72.69,1.84-4.97,3.29-8.9,3.98-12.91,2.53-14.76,3.07-30.59,3.59-45.89.37-10.74.75-21.86,1.82-32.32,2.17-21.22,6.45-41.5,13.06-61.98.21-.64-.14-1.33-.79-1.54-.65-.21-1.33.15-1.54.79-6.67,20.65-10.98,41.08-13.17,62.48-1.08,10.55-1.46,21.7-1.83,32.49-.52,15.22-1.06,30.97-3.56,45.57-.65,3.79-2.07,7.62-3.86,12.47-4.58,12.39-11.51,31.11-15.26,73.32-.71,8.03-2.95,39.19-3.06,43.18-.04,1.25.75,2.46,2.32,3.59,3.55,2.56,10.8,4.52,17,4.52Z"/>
        <path class="cls-18" d="M400.94,350.11l1.16-.68c9.36,6.6,17.01,4.8,27.33,2.85,4.28-.81,9.03-2.61,13.5-4.39-.28,3.01-2.78,5.8-4.75,7.76-2.86,2.85-6.16,5.23-9.55,7.38-3.35,2.12-6.84,3.98-10.57,5.32-5.56,2-11.46,2.86-17.34,2.43-2.84-.21-5.64-.81-8.5-.83-2.08-.01-4.1.34-6.02,1.05-1.56-2.83-3.26-5.94-5.18-9.31l1.18-.68c.25-.02.51-.04.75-.1,8.21-1.81,14.42-7.04,17.97-10.79Z"/>
        <g>
          <path class="cls-2" d="M386.21,371c2.47-.86,5.75-1.89,8.41-1.65,3.37.29,8.37,1.47,11.77,1.4,9.72-.18,16.98-3.95,24.97-9.37,3.38-2.29,5.97-4.44,8.65-7.58,1.72-2.02,4.02-3.64,4.09-6.37,7.17-2.87,13.43-5.46,15.58-3.45.09.08.16.17.24.26l.12-.07c7.35,3.39,1.26,10.64-6.15,16.45-9.49,7.44-21.95,14.9-31.38,19.65-2.66,1.34-4.61,3.6-7.27,5.49-5.6,4-10.78,7.73-13.51,7.19-3.06-.61-5.95-7.01-5.95-7.01-2.92-3.09-6.04-8.54-9.56-14.93Z"/>
          <path d="M400.7,389.75c3.3,0,6.83-2.57,10.79-5.45,2.83-2.06,6.04-4.4,9.54-6.06,10.01-4.77,24.09-13.96,31.39-19.73,6.58-5.21,9.57-8.85,9.69-11.8.06-1.36-.48-2.57-1.59-3.61-2.66-2.49-8.69-.07-16.32,2.99-4.82,1.93-10.28,4.12-14.99,5.01l-1.21.23c-9.65,1.84-16.61,3.17-25.18-2.87-.55-.39-1.31-.26-1.7.29-.39.55-.26,1.32.29,1.7,9.42,6.64,17.2,5.16,27.05,3.28l1.21-.23c4.94-.94,10.52-3.17,15.45-5.14,5.73-2.29,12.21-4.9,13.74-3.47.59.55.84,1.08.81,1.72-.09,2.09-3.03,5.45-8.76,9.99-7.19,5.69-21.06,14.75-30.92,19.45-3.7,1.76-7.01,4.17-9.93,6.3-4.54,3.31-8.13,5.92-10.85,4.65-3.77-1.76-7.4-8.37-12.43-17.51-1.42-2.58-2.96-5.38-4.67-8.38-.33-.59-1.08-.79-1.67-.46-.59.33-.79,1.08-.46,1.67,1.7,2.98,3.24,5.78,4.65,8.35,5.45,9.9,9.04,16.45,13.53,18.55.83.39,1.68.56,2.54.56Z"/>
          <path d="M402.29,394.22c3.19,0,7.75-3.26,13.4-7.29l.26-.18c1.07-.77,2.02-1.58,2.94-2.36,1.37-1.17,2.67-2.28,4.17-3.04,8.57-4.31,21.37-11.77,31.59-19.77,7-5.49,10.34-10.13,9.91-13.79-.24-2.03-1.58-3.62-4-4.74-.61-.28-1.34-.01-1.62.6-.28.61-.01,1.34.6,1.62,1.61.74,2.46,1.66,2.6,2.8.31,2.64-2.97,6.86-8.99,11.57-10.07,7.89-22.71,15.26-31.18,19.51-1.76.89-3.17,2.09-4.66,3.36-.88.75-1.79,1.53-2.77,2.23l-.26.18c-4.75,3.39-10.13,7.21-12.3,6.81-1.68-.34-3.98-3.9-5.07-6.32-.28-.61-1-.89-1.62-.61-.62.28-.89,1-.61,1.62.32.71,3.25,7,6.82,7.71.26.05.52.08.8.08Z"/>
          <path d="M408.47,371.97c8.99,0,21.36-6.97,29.22-14.11,2.57-2.34,6.9-6.76,7.02-10.14.02-.67-.5-1.24-1.18-1.27-.69-.05-1.24.5-1.27,1.18-.05,1.38-1.71,4.32-6.22,8.42-7.78,7.07-20.02,13.95-28.41,13.45-2.77-.17-5.2-.48-7.55-.79-4.95-.64-9.23-1.2-13.56.27-.64.22-.98.91-.77,1.55.22.64.91.98,1.55.77,3.8-1.29,7.62-.79,12.46-.16,2.28.3,4.87.63,7.72.8.32.02.65.03.98.03Z"/>
        </g>
        <path class="cls-5" d="M381.75,362.26c.5,0,1-.05,1.48-.16,9.74-2.14,16.73-8.89,20.03-12.73,1.6-1.85,1.91-4.46.79-6.63-5.7-11.15-26.35-51.97-52.79-108.93-6.88-14.82-20.69-12.11-39.81-8.37-18.55,3.63-77.72,12.32-78.31,12.41-.67.1-1.13.72-1.03,1.39.1.67.71,1.13,1.39,1.03.59-.09,59.82-8.78,78.43-12.43,18.7-3.66,31.05-6.08,37.12,7,26.46,57.01,47.13,97.86,52.83,109.02.66,1.29.47,2.83-.47,3.92-3.1,3.6-9.65,9.95-18.7,11.93-1.95.43-4.53-.56-5.63-2.17-.73-1.07-1.58-2.29-2.53-3.66-12.71-18.33-42.49-61.27-46.06-83.71-.15-.94-.71-1.75-1.55-2.21-.84-.47-1.84-.53-2.73-.16-38.36,15.83-54.3,21.27-60.92,23.04-30.52,8.17-53.69,8.98-53.92,8.99-.67.02-1.21.59-1.18,1.26.02.68.58,1.25,1.26,1.18.23,0,23.66-.83,54.47-9.07,9.59-2.57,30.76-10.57,61.22-23.14.19-.08.41-.07.6.04.1.06.28.2.33.46,3.66,23,33.65,66.25,46.46,84.72.95,1.36,1.79,2.59,2.53,3.65,1.39,2.02,4.13,3.32,6.69,3.32Z"/>
        <path class="cls-5" d="M326.66,269.71c.4,0,.79-.19,1.02-.55,4.83-7.27,8.48-15.22,10.85-23.62.18-.65-.2-1.33-.85-1.51-.65-.18-1.33.2-1.51.85-2.3,8.16-5.84,15.87-10.53,22.93-.37.56-.22,1.32.34,1.7.21.14.44.2.68.2Z"/>
        <path class="cls-5" d="M216.39,277.51c.52,0,1-.33,1.17-.85,1.64-5.16,1.76-10.9,1.88-16.97.09-4.69.19-9.53,1.02-14.26.12-.67-.33-1.3-.99-1.42-.66-.12-1.3.33-1.42.99-.86,4.92-.96,9.86-1.06,14.63-.12,5.89-.22,11.46-1.76,16.28-.2.64.15,1.33.79,1.54.12.04.25.06.37.06Z"/>
      </g>
      <g>
        <path class="cls-11" d="M76.82,27.99c-2.17-7.76,2.81-13.94,11.85-22,22.85-10.05,26.41,26.5,33.47,40.62l.62.45c4.16,12.97,8.63,26.58,14.8,38.47,8.4-1.55,14.81,4.48,21.46,8.96,7.05,4.59,15.49,6.16,23.14,9.47.4.16.73-.24.72-.61.03,0,.07,0,.1,0-.4-4.9-5.67-9.22-3.91-14.32,3.53-1.34,11.72,6.89,13.63,9.81,11.99,10.82,26.58,21.1,35.24,34.86,3.91,23.76-2.4,69.36,6.97,99.42,1.4,5.03-5.17,9.95-8.88,12.09-3.09,1.22-8.27-6.31-9.62-8.71-1.28,3-4.98,11.54-8.3,11.77-18.24,1.92-40.96,1.11-58.52-4.5-5.04-3.07-3.36-9.15-1.57-14.02,1.92-5.57,3.85-18.46,4.05-19.05-1.97-27.23-29.28-58.39-34.73-79.79-4.9-19.29-17.91-41.61-22.92-61.25-3.16-11.4-5.22-22.81-6.48-34.31-1.27-.84-2.75,1.33-3.76,1.98-3.3-2.33-6.37-5.23-7.35-9.35Z"/>
        <path class="cls-19" d="M19.25,179.7l35.97-110.77c.13.04.25.06.38.06.52,0,12.59-36.02,12.59-36.02,2.19-6.97,2.78-14.63,1.72-22.16-.28-1.97-.26-3.85.04-4.9.38-1.33,1.6-2.37,3.42-2.93,2-.62,4.43-.57,6.85.13,2.93.85,5.3,2.55,6.49,4.41-5.64,4.9-9.97,13.13-9.97,13.13-.67,2.4-.59,4.96.08,7.36-.96,2.22-1.77,4.48-2.38,6.78l-6.72,26.39c-.17.65.23,1.32.88,1.49l-31.04,121.92c-1.39,5.41-6.66,9.07-11.83,7.73-5.31-1.38-8.24-7.15-6.49-12.59Z"/>
        <path d="M86.7,7.5c-1.19-1.86-3.56-3.56-6.49-4.41-2.42-.7-4.85-.74-6.85-.13-1.82.56-3.03,1.6-3.42,2.93-.3,1.05-.32,2.93-.04,4.9,1.07,7.53.47,15.19-1.72,22.16l-11.42,35.18c-.17.52-.65.85-1.16.85-.13,0-.25-.02-.38-.06-.64-.21-.99-.9-.79-1.54l11.42-35.17c2.08-6.62,2.64-13.9,1.63-21.07-.33-2.36-.29-4.52.11-5.92.62-2.15,2.41-3.78,5.05-4.59,2.45-.76,5.38-.72,8.26.11,3.49,1.01,6.24,2.96,7.77,5.24-.67.45-1.32.96-1.96,1.52Z"/>
        <path class="cls-20" d="M192.68,98.85c-1.86-2.9-10.15-11.15-13.63-9.81.23-.54.56-1.06,1.03-1.54l-.2-1c3.86-.01,4.35.84,10.28,3.47,14.01,6.79,10.99-14.2,23.92-19.85.54-2.33-3.42-4.9-3.54-7.16.99-8.96,9.81-17.22,5.88-27.59-5.04-7.01-15.31,6.96-17.35,8.02-5.85,6.17-17.69,8.69-24.02,1.61-12.29-8.07-12.54,6.58-8.04,11.34.03-.01-9.31,7.78-11.43,7.54-4.66,8.24-4.75,11.07-12.97,20.36.94.66,1.96,1.22,2.95,1.76-2.91-2.34-8.02,2.06-9.46-2.33-4.35-12.22-9.96-24.01-13.37-36.6l-.62-.45c-1.71-4.66-3.42-9.32-5.13-13.98.51-1.08,1.29-2.01,2.12-2.87l-2.19.23c9.35-4.29,6.74-21.3,20.21-20.83,5.8.66,11.22.94,15.08-4.08,9.79-8.38,18.76-.73,28.69,1.22,10.29-2.3,28.23,4.86,31.71,13.54,1.53,2.6,2.03,3.98,5.76,4.29,13.37,2.62,8.96,19.59,6.46,29.1-2.9,8.5,4.38,19.35-2.35,26.3-3.17,2.4-8.15,1.38-11.02,4.13-4.41,6.46-4.38,18.84-14.88,18.1-.9-1.12-3-1.97-3.89-2.91Z"/>
        <path class="cls-20" d="M89.3,83.11c2.86-3.92,4.63-8.61,5.11-13.44,4.46,17.09,15.16,37.96,20.76,55.39,2.61,7.59,6.81,16.15,4.26,24.21-1.35,3.34-4.75,3.92-7.85,3.2-8.23,1.34-4.73,11.72-1.87,16.73,7.07,13.96-4.75,36.39-28.59,19.3,7.28,1.46,21.71,1.5,21.31-8.86,1.78-3.63-8.27-14.41-11.92-20.04-4.56-9.89,11.77-8.53,8.09-18.03-13.74-21.49-37.13-31.47-9.29-58.47Z"/>
        <path class="cls-18" d="M149.94,74.52l5.64-10.66s4.15-1.45,5.8-2.9c4.01-3.59,5.63-4.64,5.63-4.64,0,0-5.26-6.93-1.37-12.43,2.83-3.39,9.41,1.09,9.41,1.09,0,0,2.73,2.9,6.51,3.82,3.78.92,5.34.54,8.69.03,2.5-.35,8.82-5.46,8.82-5.46,0,0,8.57-8.24,11.1-9.53,1.2-.67,5-.69,6.25,1.51,1.65,2.82.49,8.57.41,9.65-.59,5.48-6.32,12.87-6.29,17.95.12,2.26,4.08,4.83,3.54,7.16-.39,1.91-3.66,1.34-5.42,3.55-3.33,4.32-6.14,11.51-7.57,13.68-3.6,5.48-7.14,4.34-10.94,2.62-3.38-1.56-7.18-3.28-7.18-3.28l-3.1-.19.2,1c-.47.48-.81,1-1.03,1.54-.22.52-.34,1.06-.37,1.61-.07,1.07.15,2.18.51,3.26.18.52.38,1.04.61,1.54.67,1.51,1.49,2.94,2.18,4.44.5,1.08.97,2.26.99,3.47-.03,0-.07,0-.1,0-.31.03-.63.02-.95-.01-.85-.33-2-.72-3.25-.96-1.4-.53-2.78-1.02-4.23-1.44-3.48-1-6.77-2.6-10.07-4.08-1.41-.63-2.78-1.34-4.07-2.19-.21-.14-.43-.28-.64-.43-1.46-1.04-2.97-1.99-4.52-2.89-1.13-.65-2.27-1.28-3.4-1.92-1.82-1.03-3.64-2.07-5.47-3.08-.22-.12-.45-.25-.67-.37-.99-.54-2-1.1-2.95-1.76,4.22-4.47,7.32-9.7,7.32-9.7Z"/>
        <path class="cls-11" d="M87.8,34.31c-1.89,1.42-7.81,5.39-9.7,6.81-.41.31-.83.62-1.24.93l-.41.5c5.33,3.57,8.02,10.66,6.42,16.87,2.4-1.74,4.8-3.47,7.19-5.21l-2.25-19.9Z"/>
        <path class="cls-5" d="M191.99,250.47c5.84,0,11.33-.32,16.26-.98,3.53-.47,6.76-6.69,8.36-10.32,2.11,3.17,6.17,8.29,9.75,7.21,2.34-.7,6.85-5.27,7.9-6.56,1.44-1.77,2.66-4.56,1.78-7.1-5.66-16.28-6.54-69-5.84-79.05.06-.92.14-1.84.21-2.76.48-5.93.97-12.06-1.36-17.67-2.18-5.25-6.52-9.16-10.34-12.62-4.17-3.77-8.43-7.59-12.69-11.42-4.2-3.77-8.4-7.55-12.52-11.26-.5-.45-1.27-.41-1.73.09-.45.5-.41,1.28.09,1.73,4.12,3.72,8.32,7.49,12.52,11.27,4.26,3.82,8.51,7.65,12.68,11.42,3.63,3.28,7.75,7,9.72,11.74,2.11,5.06,1.63,10.9,1.18,16.53-.08.93-.15,1.86-.22,2.79-.72,10.5.1,63.13,5.98,80.02.55,1.59-.39,3.56-1.36,4.75-1.33,1.63-5.27,5.33-6.71,5.76-2.02.61-6.1-4.5-8.21-8.15-.24-.41-.69-.64-1.16-.61-.47.04-.88.34-1.05.78-1.68,4.38-5.06,10.69-7.32,11-14.98,2-35.36.84-54.53-3.11-1.25-.26-2.29-.65-3.16-1.22-4.11-2.63-3.05-6.86-1.09-12.54,1.5-4.35,2.98-12.85,3.69-16.94.18-1.04.35-2.02.4-2.2.58-1.68.64-3.53.16-5.28-3.04-11.25-9.34-24.65-13.81-32.7l-2.67-4.8c-13.26-23.85-16.41-29.52-24.52-56.8-.42-1.42-1.01-2.86-1.76-4.26-13.63-25.74-20.85-53.31-22.73-86.74-.04-.67-.61-1.2-1.29-1.15-.68.04-1.19.62-1.15,1.29,1.89,33.8,9.2,61.69,23,87.75.67,1.26,1.2,2.54,1.57,3.81,8.18,27.54,11.36,33.26,24.72,57.29l2.67,4.8c4.75,8.56,10.79,21.82,13.59,32.15.35,1.28.3,2.63-.13,3.9-.07.22-.14.58-.48,2.52-.7,4.03-2.16,12.41-3.58,16.52-1.69,4.91-3.99,11.57,2.07,15.44,1.12.71,2.46,1.24,3.99,1.55,13.15,2.7,26.87,4.11,39.09,4.11Z"/>
        <g>
          <path d="M175.69,99.48c.11,0,.23-.02.35-.05.65-.19,1.02-.87.82-1.52-.3-1.01.49-5.76,2.39-8.26.39-.51.95-1.12,1.58-1.1,1.66.03,3.26.69,5.48,1.6,1.57.65,3.35,1.38,5.62,2.08,5.06,1.45,7.65-1.63,10.07-5.19,2.41-3.48,2.89-4.3,4.48-7.34.03-.05.05-.1.07-.15l.46-1.28c.32-.65,1.47-2.82,2.46-3.68.45-.45,1.03-.8,1.65-1.18,1.18-.71,2.51-1.52,3.03-2.95.87-1.92-.37-3.35-1.36-4.51-.42-.48-.85-.98-1.16-1.53-.27-.6-.87-1.9.34-4.83.27-.57.57-1.21.89-1.87,1.38-2.88,2.95-6.14,4.12-10.03,1.11-3.83,1.36-7.34.77-10.74-.12-.67-.75-1.11-1.41-1-.67.11-1.11.75-1,1.41.78,4.5-.34,8.36-.71,9.63-1.11,3.7-2.63,6.86-3.98,9.66-.32.67-.63,1.32-.93,1.95-1.47,3.52-.92,5.56-.28,6.94.48.84,1.01,1.46,1.47,2,1.02,1.19,1.17,1.51.95,1.99-.26.71-1.17,1.25-2.04,1.78-.72.44-1.46.89-2.06,1.49-1.48,1.29-2.89,4.2-3.04,4.53l-.48,1.31c-1.52,2.91-1.96,3.65-4.29,7.02-2.84,4.17-4.42,5.07-7.36,4.23-2.14-.67-3.87-1.38-5.39-2-2.38-.98-4.25-1.75-6.37-1.78-.9.01-2.25.33-3.57,2.07-2.14,2.82-3.4,8.36-2.78,10.44.16.53.64.87,1.17.87Z"/>
          <path d="M138.15,87.61c.26,0,.52-.08.75-.25,7.85-6.06,13.84-13.8,17.81-23.01.27-.62-.02-1.34-.64-1.61-.62-.27-1.34.02-1.61.64-3.8,8.82-9.54,16.24-17.06,22.04-.53.41-.63,1.18-.22,1.72.24.31.6.48.97.48Z"/>
          <path d="M169.31,58.81c.4,0,.79-.2,1.03-.56.37-.57.21-1.32-.36-1.69-3.35-2.18-4.82-4.75-4.61-8.08.16-2.17,1.26-3.91,2.87-4.54,1.75-.69,3.94.02,5.98,1.93.49.46,1.27.44,1.73-.06.46-.49.44-1.27-.06-1.73-2.77-2.59-5.88-3.47-8.55-2.43-2.5.97-4.19,3.52-4.42,6.65-.26,4.26,1.61,7.63,5.72,10.3.21.13.44.2.67.2Z"/>
          <path d="M170.14,51.84s.09,0,.14,0c.67-.07,1.16-.68,1.08-1.35-.02-.17-.22-1.7-1.26-3.04-.41-.53-1.18-.63-1.72-.22-.53.41-.63,1.18-.22,1.72.62.8.75,1.8.76,1.81.07.63.6,1.09,1.22,1.09Z"/>
          <path d="M209.62,54.27c.41,0,.82-.21,1.05-.59.35-.58.16-1.33-.41-1.68-1.17-.71-1.71-1.66-2.24-2.57-.84-1.46-1.89-3.28-5.24-2.73-.67.11-1.12.74-1.01,1.4.11.67.74,1.12,1.41,1.01,1.69-.27,1.95.18,2.73,1.54.62,1.07,1.39,2.41,3.1,3.45.2.12.42.18.63.18Z"/>
          <path class="cls-10" d="M192.36,90.45s-9.64-4.34-14.15-7.58c-4.45-3.38-6-6.48-6-6.48,0,0-.12,3.76,1.14,7.23,1.08,3.09,3.77,5.66,3.77,5.66,0,0,2.24-2.66,4.58-2.11,2.89.75,10.66,3.29,10.66,3.29Z"/>
          <path d="M185.83,50.87c4.38,0,10.1-2.35,17.4-9.53l.12-.11c4.62-4.46,8.62-8.31,11.39-8.08,1,.09,1.92.73,2.81,1.95.4.55,1.16.67,1.71.27.55-.4.67-1.16.27-1.71-1.32-1.81-2.86-2.8-4.58-2.95-3.88-.33-8.04,3.67-13.3,8.75l-.12.12c-8.87,8.73-16.05,11.02-21.35,6.83-.53-.42-1.3-.33-1.72.2-.42.53-.33,1.3.2,1.72,1.8,1.42,4.17,2.54,7.18,2.54Z"/>
          <path d="M226.19,50.93c.53,0,1.01-.34,1.17-.87,2.82-9.31,1.63-19.53-2.82-24.3-2.36-2.53-5.5-3.44-9.08-2.62-.66.15-1.07.81-.92,1.47.15.66.81,1.07,1.46.92,2.71-.62,4.98.02,6.74,1.9,3.83,4.1,4.8,13.53,2.26,21.92-.2.65.17,1.33.82,1.53.12.04.24.05.35.05Z"/>
          <path class="cls-10" d="M206.8,58.09c.51-1.39-.05-2.87-1.17-3.28-1.11-.41-2.5.35-3.01,1.74-.51,1.39-.09,2.82,1.17,3.28,1.06.55,2.5-.35,3.01-1.74Z"/>
        </g>
        <path d="M198.3,102.83c7.09,0,9.26-6.52,11.04-11.85.88-2.65,1.72-5.16,3-6.81.83-1.07,2.77-1.43,4.82-1.8,3.98-.72,9.43-1.71,10.04-9.23.22-2.67-.35-5.29-.9-7.82-.65-3.01-1.26-5.85-.57-8.58.17-.65-.23-1.32-.88-1.49-.65-.17-1.32.23-1.49.88-.83,3.29-.13,6.55.55,9.7.53,2.46,1.04,4.79.85,7.11-.46,5.65-3.97,6.28-8.04,7.02-2.53.46-4.91.89-6.32,2.71-1.53,1.98-2.43,4.68-3.38,7.54-2.32,6.96-4.19,11.1-10.59,10.01-.67-.11-1.3.33-1.41,1-.11.67.33,1.3,1,1.41.82.14,1.58.2,2.29.2Z"/>
        <path d="M116.92,31.22c.11,0,.23-.02.35-.05,3.55-1.05,5.62-4.41,6.73-7.04.42-1,.78-2.02,1.13-3.01.64-1.84,1.25-3.57,2.22-5.11,2.07-3.31,5.92-5.51,9.82-5.62,1.1-.04,2.2.08,3.38.2,2.49.25,5.06.5,7.48-.62,1.46-.68,2.58-1.73,3.66-2.75.43-.4.86-.81,1.31-1.19,3.12-2.61,7.56-3.89,12.16-3.5,2.76.23,5.28,1.42,7.96,2.68,1.51.71,3.07,1.45,4.7,2.01.77.26,2.41.5,3.36.29,10.18-2.27,27.19,4.92,30.32,12.83.25.63.96.93,1.59.69.63-.25.93-.96.69-1.59-3.82-9.63-22.71-16.64-33.13-14.32-.36.08-1.52-.04-2.03-.22-1.5-.52-3-1.23-4.45-1.91-2.75-1.3-5.6-2.64-8.79-2.9-5.25-.44-10.32,1.05-13.93,4.06-.49.41-.95.84-1.42,1.28-.98.93-1.92,1.81-3.01,2.31-1.82.84-3.95.63-6.21.41-1.2-.12-2.45-.24-3.69-.21-4.76.13-9.3,2.73-11.82,6.77-1.11,1.77-1.79,3.72-2.45,5.6-.33.95-.68,1.94-1.07,2.87-.91,2.15-2.54,4.87-5.17,5.64-.65.19-1.02.87-.83,1.52.16.53.64.88,1.17.88Z"/>
        <path class="cls-18" d="M63.63,39.67c-2.41.14-2.18,3.06-4,3.86-1.09.67-1.06,1.95-1,3.06-.18.97-1.49,1.45-1.59,2.43.78,1.95-.11,3.28-1.16,5-.51,1.4.14,2.98-.13,4.45-.37,1.99-2.33,3.36-2.62,5.38-.08,8.15,14.58-5.91,16.5-2.97-.28,3.43-2.65,6.5-2.55,9.94,6.88-3.29,10.85-10.23,16.86-14.47,1.14-6.74-4.9-10.82-7.09-14.3,2.01-1.7,5.97-3.12,6.72-5.64-5.77-1.96-6.17-9.72-7.64-14.69-2.54-2.61-9.1-3.02-9.46,1.69,3.61,4.69-3.48,1.35-2.91,6.3,2.82,4.39-4.36,5.23,0,9.84l.08.12Z"/>
        <path class="cls-5" d="M63.55,40.78c.34,0,.68-.14.93-.42.44-.51.38-1.28-.13-1.73-.57-.49-.91-1.21-.93-1.97-.03-.75.25-1.45.78-1.97l.22-.2c.31-.28.7-.64.95-1.15.58-1.18.08-2.28-.29-3.09-.14-.3-.27-.59-.32-.82-.15-.64.37-1.42,1.15-1.7l.18-.07c.8-.28,1.13-.45,1.7-1.25.24-.33.51-.7-.07-3.06.27-1.25,1.24-2.54,3.1-2.46l4.99,1.66c.64.21,1.33-.13,1.55-.78.21-.64-.13-1.33-.78-1.55l-5.14-1.7c-.09-.03-.19-.05-.29-.06-3.02-.24-5.44,1.7-5.9,4.75-.02.16-.02.33.03.48.14.56.27,1.18.31,1.53-.07.03-.17.06-.33.12l-.2.07c-1.95.7-3.14,2.7-2.7,4.56.11.47.3.9.47,1.27.16.34.39.86.32,1-.05.09-.25.28-.4.42-.1.09-.19.17-.28.26-1,.99-1.55,2.37-1.51,3.8.05,1.44.69,2.8,1.78,3.74.23.2.51.3.8.3Z"/>
        <path class="cls-5" d="M68.33,71.23c1.12,0,1.92-.69,2.55-1.23.31-.26.62-.54.99-.77.68-.44,1.9-1.63,4-3.7,2.51-2.48,5.96-5.88,7.64-6.81.59-.33.81-1.07.48-1.66-.32-.59-1.07-.81-1.66-.48-1.98,1.09-5.27,4.34-8.17,7.21-1.52,1.5-3.1,3.06-3.6,3.39-.51.33-.91.67-1.26.98-.88.75-.92.73-1.37.52-.62-.29-1.34-.03-1.63.59-.29.61-.03,1.34.58,1.63.54.25,1.02.36,1.45.36Z"/>
        <path class="cls-5" d="M55.32,67.69c1.35,0,2.65-.65,3.27-.96l11.48-5.77c.34-.14,1.95-.31,3.51-.31.68,0,1.22-.55,1.22-1.22s-.55-1.22-1.22-1.22c-.35,0-3.5.02-4.61.57l-11.49,5.77c-1.39.7-2.34.87-2.79.51-.59-.46-.32-1.78.28-2.79,1.56-2.63,4.29-4.8,8.59-6.82l.63-.29c1.37-.64,2.79-1.29,4.04-2.31.84-.69,1.56-1.51,2.25-2.29,1.09-1.25,2.12-2.43,3.47-2.85.64-.2,1-.89.8-1.54-.2-.64-.89-1-1.54-.8-2,.63-3.31,2.13-4.57,3.57-.65.75-1.27,1.45-1.95,2.01-1,.82-2.22,1.39-3.52,1.98l-.64.3c-3,1.41-7.26,3.75-9.66,7.79-1.15,1.94-1.5,4.54.32,5.96.67.52,1.41.71,2.14.71Z"/>
        <path class="cls-5" d="M57.88,47.41c-.9-1.43-.54-3.23.87-4.36,1.49-1.2,3.74-1.45,5.92-1.6,1.41-.1,2.87-.19,4.35-.02,1.04.12,2.98.5,4.23,1.71.58.56.66,1.5.61,2.19-.04.6-.21,1.7-.94,2.25-.54.41-1.31.3-1.71-.24-.37-.49-.31-1.17.11-1.6.08-.21.13-.69.09-.96-.56-.45-1.54-.79-2.68-.92-1.26-.15-2.61-.05-3.91.03-1.41.1-3.53.24-4.55,1.06-.34.27-.61.72-.33,1.16.36.57.18,1.33-.39,1.69-.2.13-.43.19-.65.19-.41,0-.81-.2-1.04-.58Z"/>
        <path class="cls-5" d="M55.95,59.63c.12,0,.25-.02.37-.06.64-.2,1-.89.8-1.54-.44-1.4.05-3.11,1.16-4.07.68-.58,1.6-.95,2.49-1.28,1.81-.68,3.67-1.27,5.55-1.75.83-.22,1.22-.11,1.28-.07.33.59,1.07.79,1.66.45.59-.33.79-1.09.45-1.68-.39-.69-1.43-1.74-4-1.07-1.96.51-3.91,1.12-5.8,1.83-1.09.41-2.24.88-3.22,1.72-1.86,1.59-2.64,4.33-1.91,6.66.16.52.65.86,1.17.86Z"/>
        <path class="cls-5" d="M57.9,53.06c.22,0,.45-.06.65-.19.57-.36.75-1.11.39-1.69-.51-.82.08-2.13.95-2.75,1.15-.82,2.78-1.01,4.23-1.18l3.07-.36c.79-.09,1.74-.15,2.08.24.09.1.15.22.22.34.18.3.41.68.8,1,.53.43,1.3.35,1.72-.17.43-.52.35-1.29-.17-1.72-.06-.05-.17-.23-.25-.36-.15-.24-.3-.49-.48-.7-1.23-1.41-3.24-1.17-4.2-1.06l-3.07.36c-1.65.19-3.7.43-5.36,1.62-1.79,1.28-2.91,3.95-1.6,6.04.23.37.63.57,1.04.57Z"/>
        <path class="cls-5" d="M73.27,45.01c.24,0,.49-.07.7-.2.56-.36.93-.94,1.04-1.64.12-.8-.12-1.65-.64-2.27-.74-.86-1.8-1.2-2.74-1.42-1.97-.45-4-.65-6.03-.59-.96.03-2.08.12-3.16.56-1.27.53-2.22,1.49-2.61,2.63-.22.64.13,1.33.77,1.55.64.21,1.33-.13,1.55-.77.16-.47.62-.9,1.23-1.16.71-.29,1.56-.36,2.29-.38,1.82-.05,3.64.13,5.41.53.55.13,1.15.3,1.42.62.08.1.1.28.08.33-.57.36-.7,1.08-.34,1.65.22.36.62.54,1.02.54Z"/>
        <path class="cls-5" d="M73.88,47.2c.38,0,.75-.18.99-.5.77-1.06,1.36-1.45,2.65-1.72.66-.14,1.08-.79.94-1.45-.14-.66-.79-1.08-1.45-.94-1.87.4-2.99,1.13-4.12,2.68-.4.55-.27,1.31.27,1.71.22.16.47.23.72.23Z"/>
        <path class="cls-5" d="M82.86,60.64c.25,0,.5-.08.72-.23l7.19-5.21c.55-.4.67-1.16.27-1.71-.4-.55-1.16-.67-1.71-.27l-4.82,3.49c.31-5.35-2.03-10.84-6.16-14.26l.48-.36c.93-.69,2.9-2.06,4.81-3.37,2.02-1.39,3.92-2.71,4.89-3.43.54-.4.65-1.17.25-1.71-.4-.54-1.17-.65-1.71-.25-.93.69-2.9,2.06-4.81,3.38-2.02,1.39-3.92,2.71-4.89,3.43l-1.25.93c-.08.06-.15.13-.21.2l-.41.5c-.22.27-.32.61-.27.95.05.34.24.65.53.84,4.9,3.29,7.39,9.83,5.92,15.54-.13.5.07,1.03.49,1.32.21.14.45.21.69.21Z"/>
        <path class="cls-5" d="M99.68,187.57c.3,0,.59-.11.83-.32,1.9-1.75,3.02-4.43,3.14-7.55.08-1.91-.51-7.19-7.63-14.75l-.3-.31c-1.59-1.69-3.24-3.43-4.08-5.48-.76-1.84-.87-4.42.59-6.01.7-.77,1.72-1.27,2.8-1.81,1.28-.64,2.6-1.29,3.62-2.47,1.65-1.91,2.08-4.85,1.11-7.67-.8-2.32-2.31-4.21-3.92-6.1-1.43-1.68-2.89-3.34-4.35-5-3.92-4.45-7.97-9.05-11.29-14.03-1.32-1.99-6.24-14.02,2.37-23.24l.08-.09c2.62-2.8,5.33-5.7,7.65-8.88,3.44-4.71,5.03-8.89,5.35-13.99.04-.67-.47-1.25-1.15-1.3-.67-.04-1.25.47-1.3,1.15-.28,4.6-1.74,8.4-4.88,12.7-2.23,3.06-4.89,5.9-7.46,8.65l-.08.09c-9.66,10.34-4.43,23.55-2.62,26.27,3.41,5.12,7.52,9.78,11.49,14.29,1.45,1.65,2.9,3.3,4.33,4.97,1.45,1.71,2.81,3.4,3.47,5.32.68,1.97.43,4.04-.64,5.27-.7.81-1.75,1.33-2.86,1.88-1.23.61-2.5,1.25-3.51,2.35-1.92,2.1-2.33,5.47-1.05,8.59,1.02,2.47,2.82,4.38,4.57,6.23l.29.31c6.67,7.09,7.02,11.73,6.97,12.98-.06,1.43-.44,4.08-2.35,5.85-.5.46-.53,1.23-.07,1.73.24.26.57.39.9.39Z"/>
        <path class="cls-5" d="M95.87,194.96c2.76,0,5.34-.64,7.72-1.94,6.83-3.71,9.42-11.66,9.42-13,.02-3.83-.73-7.73-2.18-11.28-.35-.85-.73-1.69-1.12-2.53-1.03-2.22-1.99-4.31-2.17-6.55-.13-1.7.48-3.57,1.57-4.76.5-.54,1.33-1.19,2.48-1.2.37,0,.84.07,1.31.15.55.09,1.12.18,1.74.18,2.43-.03,4.75-1.69,5.9-4.24,1.05-2.32,1.01-4.84.85-6.77-.52-6.47-2.84-12.53-5.08-18.38-.24-.63-.95-.95-1.58-.7-.63.24-.95.95-.7,1.58,2.18,5.69,4.44,11.58,4.93,17.7.13,1.64.18,3.76-.64,5.57-.62,1.38-2.01,2.78-3.7,2.8-.42,0-.84-.07-1.31-.14-.55-.09-1.12-.18-1.73-.18-1.6.02-3.07.71-4.26,2-1.55,1.69-2.39,4.22-2.21,6.61.21,2.67,1.32,5.07,2.39,7.38.37.81.75,1.61,1.08,2.43,1.32,3.25,2.01,6.83,2,10.34-.07,1.17-2.61,8.06-8.47,11.04-5.47,2.78-12.3,1.58-20.32-3.57-.57-.37-1.32-.2-1.69.37-.36.57-.2,1.32.37,1.69,5.63,3.61,10.79,5.43,15.42,5.43Z"/>
        <path d="M145.44,66.82c8.37,0,16.75-3.55,22.47-9.66.46-.49.44-1.27-.06-1.73-.49-.46-1.27-.44-1.73.06-5.92,6.33-14.96,9.67-23.57,8.73-.67-.08-1.28.41-1.35,1.08-.07.67.41,1.28,1.08,1.35,1.05.11,2.1.17,3.16.17Z"/>
        <path d="M27.91,193.79c1.82,0,3.64-.5,5.3-1.48,2.71-1.6,4.73-4.31,5.53-7.45l31.34-123.11c.17-.65-.23-1.32-.88-1.49-.65-.17-1.32.23-1.49.88l-31.34,123.11c-.64,2.5-2.25,4.67-4.41,5.94-1.86,1.09-3.96,1.41-5.93.9-2.14-.56-3.91-1.95-5-3.94-1.17-2.13-1.4-4.71-.63-7.09l36.35-111.94c.21-.64-.14-1.33-.79-1.54-.64-.21-1.33.14-1.54.79l-36.35,111.94c-.98,3.02-.68,6.31.81,9.02,1.41,2.58,3.73,4.4,6.53,5.13.82.21,1.65.32,2.48.32Z"/>
        <path class="cls-5" d="M151.43,106.93c.26,0,.52-.08.74-.25.54-.41.64-1.18.23-1.71-5.79-7.63-11.33-15.16-15.42-23.35-2.63-5.27-4.71-10.93-6.72-16.4l-15.43-42.02c-1.74-4.74-3.71-10.11-7.33-14.3-4.1-4.75-10.02-7.09-15.09-5.95-8.7,1.95-16.44,16.51-16.77,17.13-.04.08-.07.16-.1.24-1.81,6.54,1.43,14.22,7.39,17.47.59.32,1.34.11,1.66-.49.32-.59.11-1.34-.49-1.66-4.97-2.71-7.69-9.08-6.24-14.54.73-1.35,7.84-14.14,15.08-15.76,4.2-.94,9.18,1.09,12.7,5.16,3.32,3.85,5.13,8.78,6.88,13.55l15.43,42.02c2.03,5.53,4.13,11.25,6.82,16.65,4.18,8.39,9.8,16.02,15.67,23.74.24.32.61.48.97.48Z"/>
        <path class="cls-5" d="M216.39,237.73c.7-.01,1.23-.57,1.22-1.24-.28-16.55-.56-31-.84-45.46-.28-14.35-.55-28.71-.83-45.14-.07-4.03-.14-8.59-1.85-12.69-2.07-4.96-6.21-8.59-9.86-11.8l-19.14-16.81c-1.53-1.35-3.42-2.46-5.61-3.3-.6-.23-1.21-.52-1.83-.81-1.45-.69-2.96-1.39-4.66-1.6-1.8-.22-3.52.22-4.71,1.21-1.48,1.22-1.98,3.05-2.15,4.37-.42,3.35-.87,5.33-1.17,6.18-2.66-.93-12.24-7.71-16.81-11.53-.52-.43-1.29-.36-1.72.15-.43.52-.37,1.29.15,1.72,2.03,1.7,6.36,4.98,10.37,7.72,7.61,5.19,8.81,4.92,9.66,3.98.3-.33,1.11-1.22,1.95-7.92.16-1.25.61-2.24,1.28-2.8.68-.56,1.71-.8,2.85-.66,1.32.16,2.64.78,3.92,1.39.67.32,1.34.63,1.99.88,1.92.74,3.56,1.7,4.88,2.85l19.14,16.82c3.45,3.03,7.37,6.47,9.21,10.9,1.53,3.67,1.6,7.8,1.66,11.79.28,16.42.55,30.79.83,45.14.28,14.46.56,28.91.84,45.46.01.67.56,1.2,1.22,1.2Z"/>
        <path class="cls-5" d="M189.26,104.89c-1.27-1.23-2.4-2.93-3.4-4.44-.79-1.19-1.96-2.95-2.55-3.26-.12.13-.39.5-.72,1.46-.13.39-.45.67-.82.78.49,1.43,1.01,2.82,1.51,4.09.25.63-.06,1.34-.69,1.59-.63.25-1.34-.06-1.59-.69-2.78-7.06-4.13-12.39-4-15.84-.17-.64.21-1.3.85-1.49.3-.08.63-.05.91.09,3.47.98,13.47,7.8,14.72,10.31.18.36.36.74.41,1.23.06.58-.09,1.09-.2,1.46l-1.12,3.76c-.22.73-.76,1.27-1.47,1.45-.17.04-.33.06-.49.06-.5,0-.99-.19-1.36-.56ZM180.84,96.53c.46-.88,1.13-1.67,2.15-1.8,1.85-.23,3.21,1.8,4.91,4.37.81,1.23,1.65,2.49,2.53,3.48l.92-3.1c.05-.16.12-.41.11-.51,0-.08-.11-.28-.16-.39-.93-1.85-8.45-6.74-11.81-8.49.15,1.89.67,4.14,1.35,6.43Z"/>
        <path class="cls-5" d="M172.84,101.31c.48,0,.94-.29,1.13-.76.25-.63-.05-1.34-.67-1.59-8.78-3.56-20.79-10.06-30.61-16.56-.56-.38-1.32-.22-1.7.34-.37.56-.22,1.32.34,1.7,9.94,6.59,22.13,13.18,31.04,16.79.15.06.31.09.46.09Z"/>
        <g>
          <path class="cls-11" d="M191.46,75.36c-.4.36-.77.78-.95,1.29-.18.51-.14,1.12.2,1.54.27.33.68.5,1.07.66,2.27.91,4.55,1.81,6.83,2.7.36.14.74.28,1.12.2.37-.08.66-.37.92-.66,1.82-2.01,4.87-5.89.56-6.6-3.28-.54-6.98-1.57-9.75.88Z"/>
          <path d="M196.63,81.6c-.78-.49-1.59-1-3.16-1.19-1.06-.13-3.47-1.1-4.1-2.4-1.02-2.12,1.4-3.6,2.19-4.08l.29-.18c.92-.57,1.76-1.09,3.2-1.07,1.66.04,4.26.51,5.98.91,1.19.27,2.62.74,3.07,1.96.47,1.26-.36,2.4-1.24,3.61-.36.49-.73.99-1.04,1.54l-.1.18c-.25.47-.68,1.24-1.59,1.49-.37.1-.71.14-1.03.14-1.04,0-1.79-.47-2.47-.9ZM199.58,79.69l.13-.24c.38-.65.81-1.23,1.18-1.75.31-.43.73-1,.86-1.31-.15-.09-.51-.26-1.27-.43-1.74-.4-4.1-.81-5.49-.84-.7-.02-1.03.19-1.86.7l-.3.18c-.86.53-1.14.83-1.22.96.35.35,1.57.93,2.16,1,2.11.26,3.3,1.01,4.17,1.55.73.46.97.6,1.44.5.06-.08.14-.23.2-.34Z"/>
        </g>
        <g>
          <path class="cls-1" d="M176.91,32.75c.17,0,.34-.03.5-.11.3-.14,2.95-1.39,3.16-3.84.15-1.74-.99-3.45-3.4-5.08-.56-.38-1.32-.23-1.7.33-.38.56-.23,1.32.33,1.7,1.56,1.06,2.39,2.06,2.33,2.83-.07.87-1.3,1.63-1.73,1.83-.61.28-.88,1.01-.6,1.62.21.45.65.72,1.11.72Z"/>
          <path class="cls-1" d="M183.04,25.84c.27,0,.54-.03.82-.09,1.77-.4,3.07-2.04,3.86-4.88.18-.65-.2-1.33-.85-1.51-.65-.18-1.33.2-1.51.85-.52,1.85-1.24,2.97-2.04,3.15-1.1.25-2.63-1.11-3.07-1.61-.45-.51-1.22-.56-1.73-.11-.51.44-.56,1.21-.12,1.72.24.28,2.24,2.49,4.62,2.49Z"/>
          <path class="cls-1" d="M190.99,32.08c.44,0,.86-.24,1.08-.65.32-.6.09-1.34-.5-1.65-1.16-.61-2.55-1.6-2.65-2.8-.12-1.42,1.55-2.76,1.56-2.78.54-.41.64-1.18.23-1.72-.41-.54-1.18-.64-1.71-.23-.11.09-2.75,2.14-2.52,4.92.15,1.85,1.48,3.45,3.94,4.76.18.1.38.14.57.14Z"/>
          <path class="cls-1" d="M180.01,35.77c.42,0,.83-.22,1.06-.61.84-1.44,1.76-2.2,2.74-2.26,1.62-.1,3.45,1.73,3.95,2.39.41.54,1.18.64,1.72.23.54-.41.64-1.18.23-1.72-.11-.15-2.76-3.54-6.04-3.34-1.84.12-3.43,1.28-4.7,3.47-.34.58-.14,1.33.44,1.67.19.11.41.17.62.17Z"/>
        </g>
        <path d="M12.28,198.83c.07,0,.13,0,.2-.02.67-.11,1.12-.74,1.01-1.41-2.56-15.37-2.1-31.52,1.34-46.72.15-.66-.26-1.31-.92-1.46-.66-.15-1.31.26-1.46.92-3.51,15.51-3.98,31.99-1.37,47.66.1.6.62,1.02,1.21,1.02Z"/>
        <path d="M6,213.4c.11,0,.23-.02.35-.05.65-.19,1.02-.87.83-1.52-5.25-17.75-6.14-36.79-2.59-55.07.13-.66-.3-1.31-.97-1.43-.67-.13-1.3.3-1.43.97-3.62,18.66-2.71,38.11,2.65,56.23.16.53.65.88,1.17.88Z"/>
      </g>
    </g>
  </g>
</svg>