<?xml version="1.0" encoding="UTF-8"?>
<svg id="Layer_2" xmlns="http://www.w3.org/2000/svg" viewBox="0 0 676.01 448.25">
  <defs>
    <style>
      .cls-1 {
        stroke: #231f20;
        stroke-miterlimit: 10;
        stroke-width: 10px;
      }

      .cls-1, .cls-2 {
        fill: #f5f3f0cc;
      }

      .cls-3 {
        fill: #151717;
      }
    </style>
  </defs>
  <g id="Layer_1-2" data-name="Layer_1">
    <ellipse class="cls-1" cx="338.01" cy="224.13" rx="333.01" ry="219.13"/>
    <g id="Generative_Object">
      <g>
        <path class="cls-3" d="M203.76,96.1l.73.24c-3.22,6.62-5.2,15.71-1.46,22.35-.82,1.77-12.32-9.27.73-22.59Z"/>
        <g>
          <path class="cls-3" d="M226.11,33.43c2.81.32-1.71,13.23,6.32,9.72,1.87-.82,6.04-8.36,8.26-8.26,3.23.15-2.72,9.16,1.46,10.69,4.62,1.69,8.64-8.09,9.96-4.62-4.14,9.55,10.29,7.38,3.4,19.92-5.75,10.46-20.42,1.03-23.32,5.34,47.47,17.04,48.54,74.29,61.22,91.83,4.18,5.79,14.53,11.79,21.13,14.33,12.04,4.63,20.63,4.9,33.52,4.37,34.91-1.43,26.64-9.49,30.85-27.94,1.87-8.2,8.41-19.49,11.17-27.21,2.99-8.34,2.98-19.76,6.8-12.63,2.75,5.12.77,20.18.73,26.48,12.49-30.57,41.09-63.46,77.25-60.25,7.75.69,20.58,5.17,25.02,11.9,6.4,9.7-6.17,1.15-25.02,3.64-22.25,2.95-44.88,21.38-55.14,41.05,18.07-22.26,47.65-37.24,76.04-25.02,16.61,7.15,32.66,28.68,27.21,47.13-18.51-39.66-56.96-38.92-87.21-12.39,49.5-28.5,92.21,8.05,81.62,50.53-4.01,16.09-5.39-9.25-12.15-21.38-7.88-14.14-24.29-20.83-40.08-19.68-.83.06-8.34,1.29-8.75,1.46-2.98,1.24,4.54.78,9.23,1.94,11.17,2.77,25.12,13.75,29.39,24.54,4.35,10.97,4.17,32.2-2.43,42.27-7.23,11.04-.53-6.21-2.92-20.41-3.5-20.84-28.91-36.74-48.34-25.51v.97c54.12-7.65,41.91,65.74,24.78,81.14-9.62,8.64,1.1-11.78-.73-31.34-.52-5.52-3.89-16.14-6.8-20.89-9.95-16.25-26.12-12.52-24.54-11.42,24.18,3.42,31.06,33.13,23.81,52.96,1.11-13.68-1.41-32.62-13.12-41.3-11.52-8.54-.88,1.01.73,3.16,13.55,18.05,10.94,47.36,0,66.08-15.39,26.32-1.5-13.49,0-21.38-2.96,4.97-4.94,15.47-8.26,19.92-8.55,11.47,6.87-27.27-12.87-42.03,14.82,18.71-.05,54.48-7.77,55.39-6.87.8-.56-8.07-.73-9.47-.31-2.54-1.91,3.1-5.83,2.92-4.57,24.67-28.38,37.8-50.77,43.48-3.4,1.67-2.81,10.11-14.82,16.76-4.53,5.09-20.89,48.04-7.53,39.11,37.4.74,74.84.36,112.23,1.46,29.61.87,59.58,1.67,88.91,5.34-33.19,3.15-66.72,4.04-100.08,4.86-77.37,1.91-180.13,1.72-257.01-1.94-12.7-.61-25.55-1.29-38.14-3.16,18.16-4.25,91.38-3.39,97.9-4.62.34-.06,3.46-2.61,6.32-2.92,11.42-1.21,15.65,6.53,26.96-10.45,1.7-2.54,6.54-11.7,7.77-14.58,9.35-21.84,1.95-11.36-3.89-26.72-2.04-22.66-34.94-41.64-50.77-57.09-38.65-37.7-46.35-102.23-8.75-143.32,14.55-3.68,13.08-20.87,2.92-29.15,22.6,29.6-29.35,44.19-15.3-2.19-6.61-2.92-14.15-1.88-20.89,0,7.3-6.88,15.46-6.37,24.78-4.86-8.65-3.94-21.13-2.36-26.48,6.07-3.66-9.08,10.16-14.33,10.45-15.3-.05-2.49-2.17-5.64-2.43-7.77-.26-2.15,1.47-9.77,2.43-11.17,1.19-1.73,2.7,4.3,6.8-12.63,7.61,8.59,3.2-5.02,10.93-10.93,3.32,20.9,13.23-5.01,14.58-4.86Z"/>
          <path class="cls-2" d="M366.03,205.42c8.69,5.19,12.26,2.78,18.46,3.4,11.89,1.19,1.47,4.72-3.64,4.13,8.14,10.5-.15,9.78-9.23,12.15,8.43,12.09-11.24,12.91-19.19,9.96-.75.36,3.46,8.39-9.72,10.69-20.99,3.65-27.52-13.05-29.15-13.6-5.24-1.79,5.75,12.58,14.58,15.55,9.03,3.04,24.51.96,27.69-9.72,9.44,1.92,22.08,1.82,19.68-10.45.37-1.69,10.48-3.44,11.17-6.32,1.2-4.94-7.1-2.91,5.59-9.96,17.31,8.69,2.45,10.02,2.19,10.93,9.74,8.98,1.18,15.42-9.72,14.09,5.86,14.89-8.07,18.9-20.16,14.33-13.56,22.42-49.9,10.75-63.89-6.56-16.91-22.65-5.07-4.84,2.67-2.19,20.82,7.15-2.15-17.74-3.4-24.29,7.74,12.48,30.06,23.12,33.77,13.36,2.17-5.73-13.42-23.94,1.21-8.02,4.69,4.84,17.95,11.9,22.11,3.16,2.22-4.66-.54-8.59.73-8.5,11.22,8.91,18.9-2.65,8.26-12.15Z"/>
          <path class="cls-2" d="M314.53,319.59c.28-.14,5.49.41,6.07,1.21.69.95,0,13.98,11.17,19.43-2.27,8.47-4.57,17.29-8.26,25.26-10.07,21.75-14.22,14.13-27.94,16.28-2.73.43-7.5,4.09-10.2,3.4-.2-.05-2.79-1.98-1.46-2.92,2.04-1.43,3.46.77,5.34.49,6.86-1.03-4.05-3.64-2.67-15.3.15-1.28,4.49-13.24,5.34-15.06,7.23-15.49,13.37-15.23,17.49-20.89,3.81-5.24,4.52-11.61,5.1-11.9Z"/>
          <path class="cls-2" d="M238.74,85.9c11.06-2.04.62,21.52-7.77,18.46-5.08-1.85,2.51-17.49,7.77-18.46Z"/>
          <path class="cls-2" d="M199.39,80.07c7.56-.95-3.14,6.31-3.64,2.67-.05-.37,3.15-2.61,3.64-2.67Z"/>
          <g>
            <path class="cls-2" d="M222.22,72.29c11.24-1.27,11.19,16.93-2.43,14.58-9.03-1.56-4.48-13.8,2.43-14.58Z"/>
            <path class="cls-3" d="M221.25,73.75c11.42-2.81,10.11,15.39-1.94,11.66-7.48-2.31-1.31-10.86,1.94-11.66Z"/>
            <g>
              <path class="cls-2" d="M222.22,76.67c6.55-1.37,5.48,7.64,0,7.29-4.38-.28-3.82-6.49,0-7.29Z"/>
              <path class="cls-3" d="M223.68,77.64c2.95.39,1.64,6.02-1.94,4.86-2.85-.92-.23-5.15,1.94-4.86Z"/>
            </g>
          </g>
        </g>
      </g>
    </g>
  </g>
</svg>