<?xml version="1.0" encoding="UTF-8"?>
<svg id="Layer_2" data-name="Layer 2" xmlns="http://www.w3.org/2000/svg" viewBox="0 0 799.71 594">
  <defs>
    <style>
      .cls-1 {
        fill: #261a1a;
      }

      .cls-2 {
        fill: none;
        stroke: #261a1a;
        stroke-linecap: round;
        stroke-linejoin: round;
        stroke-width: 14px;
      }
    </style>
  </defs>
  <g id="Layer_2-2" data-name="Layer 2">
    <path class="cls-2" d="M33.22,46.76s-25.94-5.64-19.17-12.41S63.67,15.18,63.67,15.18l45.11-6.77,213.16-1.13,179.33,2.26s18.05,1.13,50.75-1.13,214.29-1.13,214.29-1.13l23.68,313.54s4.89,63.54,1.5,91.73-9.02,107.52-9.02,107.52c0,0-25.19-21.05-40.98-8.65s-25.94,30.45-14.66,40.6,43.99,15.79,43.99,15.79l-292.11-2.26-345.12,21.43"/>
    <path class="cls-2" d="M83.98,74.95l110.53-9.02s58.65-.38,160.16-1.5,197.37-7.52,231.21-3.01,92.48,10.15,95.87,12.41"/>
    <path class="cls-2" d="M711.06,81.72l11.28,54.14s0,3.38,3.38,19.17,6.77,14.66,6.77,14.66c0,0-73.31,9.02-161.28,15.79s-272.94,7.89-272.94,7.89l-241.36,12.41,11.28-92.48"/>
    <path class="cls-2" d="M12.92,74.95s5.64,145.49,3.38,173.69-9.02,113.91-9.02,113.91c0,0-1.13,50.75,1.13,71.05s6.77,68.8,6.77,68.8"/>
    <path class="cls-1" d="M230.6,212.55s10.15,0,21.43,1.13c11.28,1.13,15.79,11.28,25.94,21.43,10.15,10.15,13.53,28.2,14.66,41.73,1.13,13.53-5.64,29.32-21.43,41.73-9.6,7.54-21.28,9.66-32.25,9.66-7.08,0-13.88-.88-19.63-1.77-14.66-2.26-24.81-3.38-38.35-13.53-13.53-10.15-13.53-25.94-14.66-40.6-1.13-14.66,11.28-29.32,22.56-42.86,11.28-13.53,41.73-16.92,41.73-16.92M230.6,198.55c-.52,0-1.03.03-1.55.09-.36.04-8.87,1-18.88,3.82-14.75,4.15-25.54,10.22-32.06,18.05l-.46.56c-12.58,15.1-26.85,32.21-25.3,52.34.09,1.14.17,2.28.25,3.43,1.01,14.4,2.4,34.12,19.97,47.29,15.68,11.76,28.11,13.66,42.5,15.85l2.11.32c6.21.96,13.65,1.93,21.76,1.93,16.45,0,30.22-4.26,40.9-12.66,18.35-14.42,28.34-34.57,26.73-53.9-1.92-22.99-8.21-39.97-18.71-50.47-2.44-2.44-4.61-5.01-6.71-7.5-6.56-7.77-13.99-16.58-27.74-17.96-11.84-1.18-22.38-1.2-22.82-1.2h0Z"/>
    <path class="cls-1" d="M589.63,220.2c4.51,0,8.65.63,10.9,2.51,6.77,5.64,25.94,7.9,31.58,30.45,5.64,22.56,1.13,45.11-6.77,53.01-7.9,7.9-27.07,20.3-45.11,22.56-2.13.27-4.44.39-6.85.39-18.03,0-42.18-6.96-46.16-13.93-4.51-7.89-18.05-28.2-13.53-43.99,4.51-15.79,7.9-27.07,21.43-36.09,13.53-9.02,34.96-12.41,34.96-12.41,0,0,10.53-2.51,19.55-2.51M589.63,206.2v14-14h0c-9.48,0-19.65,2.17-22.26,2.76-4.22.71-25.17,4.6-40.02,14.5-18.02,12.01-22.44,27.5-27.12,43.89-5.72,20.03,7.18,41.82,13.38,52.3.55.93,1.04,1.76,1.46,2.48,1.42,2.48,5.73,10.03,25.98,16.05,10.55,3.13,22.34,4.93,32.34,4.93,3.05,0,5.93-.17,8.58-.5,22.41-2.8,44.14-17.41,53.28-26.55,6.14-6.14,10.55-16.38,12.41-28.84,1.81-12.14,1.14-25.1-1.96-37.47-5.78-23.13-22.74-31.23-31.85-35.59-1.58-.75-3.73-1.78-4.4-2.27-4.64-3.84-11.12-5.71-19.81-5.71h0Z"/>
    <path class="cls-1" d="M483.44,223.37c.78,0,2.2,1.15-1.33,11.74-4.51,13.53,4.51,80.08,4.51,80.08l-177.07,5.64.53-14.57-4.26-71.68s-4.17-6.23,7.11-7.36c11.28-1.13,164.67-2.26,164.67-2.26l5.45-1.5s.17-.09.39-.09M483.44,209.37c-1.76,0-3.31.31-4.59.72l-3.2.88c-22.51.17-152.89,1.19-164.11,2.31-11.67,1.17-16.67,6.81-18.81,11.35-2.19,4.64-1.99,9.34-.74,13.17l4.08,68.62-.51,13.9c-.14,3.88,1.33,7.64,4.07,10.39,2.63,2.64,6.2,4.12,9.92,4.12.15,0,.3,0,.45,0l177.07-5.64c3.96-.13,7.68-1.93,10.24-4.95,2.56-3.03,3.72-6.99,3.18-10.92-.02-.16-2.18-16.14-3.81-33.65-2.99-32.01-1.49-39.32-1.27-40.19,2.76-8.3,5.02-16.97-.01-23.96-2.77-3.85-7.24-6.14-11.96-6.14h0Z"/>
    <path class="cls-2" d="M403.44,314.25s17.76-15.98,12.12-46.43-24.03-45.87-24.03-45.87"/>
    <path class="cls-2" d="M69.31,345.64s-9.02,13.53-6.77,24.81,10.15,37.22,10.15,37.22c0,0,169.18-6.77,193.99-7.89s152.26,0,173.69-3.38,168.05-12.41,189.48-13.53,111.66-1.13,111.66-1.13c0,0-7.89-14.66-7.89-24.81s-4.51-13.53-3.38-18.05-193.99,4.51-293.24,7.89-166.92,3.38-200.76,3.38-127.45,2.26-133.09,3.38-28.2,6.77-28.2,6.77"/>
    <path class="cls-1" d="M52.21,41.7c1.68,0,3.28.46,4.2,1.92,2.51,4.01,5.01,11.28,3.51,15.79s-5.26,10.28-10.28,11.28c-.52.1-1.09.15-1.7.15-5.32,0-13.61-3.78-13.84-9.18-.25-6.02-.75-9.77,2.01-14.04,2.76-4.26,10.03-4.51,10.03-4.51,0,0,3.15-1.42,6.08-1.42M52.21,27.7h0c-3.65,0-7.05.89-9.33,1.68-4.7.64-13.49,2.87-18.53,10.65-4.93,7.62-4.6,14.51-4.31,20.59.02.52.05,1.07.07,1.63.3,7.25,4.65,13.85,11.92,18.11,4.87,2.85,10.66,4.48,15.91,4.48,1.54,0,3.04-.14,4.45-.43,11.02-2.2,17.98-12.08,20.81-20.58,4.18-12.53-3.98-26.13-4.92-27.64-3.38-5.4-9.23-8.5-16.07-8.5h0Z"/>
    <path class="cls-1" d="M735.96,28.89c1.46,0,3.2.31,4.68,1.45,3.26,2.51,7.27,5.76,6.52,10.53-.75,4.76-3.76,10.78-7.52,12.28-2.41.96-5.95,2.23-9.63,2.23-2.07,0-4.18-.4-6.16-1.48-5.51-3.01-10.03-8.27-7.27-14.29,2.76-6.02,6.52-9.77,9.27-10.03,2.76-.25,7.02-.25,7.02-.25,0,0,1.34-.45,3.09-.45M735.96,14.89h0c-1.84,0-3.47.21-4.78.46-1.73.03-4.42.1-6.6.29-8.24.75-15.79,7.36-20.73,18.13-5.52,12.04-.18,25.06,13.29,32.41,3.88,2.12,8.21,3.19,12.87,3.19,6.04,0,11.35-1.85,14.83-3.24,9.22-3.69,14.75-14.26,16.15-23.1,2.07-13.13-8.01-20.89-11.81-23.81-3.7-2.85-8.27-4.35-13.21-4.35h0Z"/>
    <path class="cls-2" d="M17.31,529.23s.38-12.03,11.28-12.78,9.4-1.88,14.66,1.88,10.9,9.4,12.78,15.79,4.14,14.29,3.76,16.92"/>
    <path class="cls-2" d="M147.76,536.37c.38-1.88-.38-8.65,1.88-14.66s33.84-61.66,35.34-66.17"/>
    <path class="cls-2" d="M257.04,520.83s3.38-1.13,5.64,1.38,5.01,4.89,5.39,7.52-.88,8.65-3.13,10.03-7.39,2.51-11.15,1-7.14-6.27-7.02-9.9-.25-6.27,2.51-8.4,5.76-2.38,5.76-2.38"/>
    <path class="cls-1" d="M315.84,490.07l31.96,2.63s-.94,9.77-.19,12.22c.75,2.44-2.13,10.46-2.13,10.46,0,0-12.91-1.44-16.86-2.19-1.13-.21-2.89-.29-4.84-.29-4.87,0-10.88.48-10.88.48,0,0-.81-8.83.69-13.35,1.5-4.51,2.26-9.96,2.26-9.96M315.83,476.07c-6.92,0-12.88,5.1-13.85,12.07h0c-.17,1.18-.79,4.83-1.67,7.47-2.2,6.59-1.67,15.52-1.35,19.06.67,7.25,6.76,12.72,13.93,12.72.37,0,.75-.01,1.13-.05.05,0,5.53-.44,9.77-.44,1.5,0,2.2.06,2.39.08,4.38.81,15.54,2.08,17.76,2.32.52.06,1.04.09,1.56.09,5.85,0,11.15-3.66,13.17-9.27,3.77-10.5,3.29-15.58,2.67-18.15-.04-1.53.14-5.05.41-7.94.36-3.73-.8-7.45-3.2-10.32-2.4-2.87-5.86-4.66-9.59-4.97l-31.96-2.63c-.39-.03-.78-.05-1.16-.05h0Z"/>
    <path class="cls-1" d="M532.38,486.57l.99,24.44s-30.5,1.46-32.14,2.11c-.06.02-.12.04-.18.04-1.49,0-1.82-8.03-1.88-11.53-.06-3.63-.53-11.4,1.21-12.85,0,0,11.09-.05,14.29-.19,3.2-.14,17.72-2.02,17.72-2.02M532.38,472.57c-.6,0-1.2.04-1.8.12-6.64.86-14.85,1.84-16.54,1.92-2.12.09-9.54.16-13.73.17-3.24.01-6.38,1.15-8.87,3.22-6.77,5.61-6.52,14.56-6.3,22.46.01.52.03.99.03,1.41.04,2.2.15,5.44.49,8.4.25,2.23.59,4.01,1.06,5.59,2.49,8.35,9.28,11.31,14.33,11.31,1.1,0,2.19-.12,3.25-.37,3.42-.4,17.77-1.23,29.74-1.8,7.68-.37,13.63-6.86,13.32-14.55l-.99-24.44c-.16-3.92-1.96-7.6-4.96-10.14-2.54-2.14-5.74-3.3-9.03-3.3h0Z"/>
    <path class="cls-1" d="M616.2,523.88c.91,0,1.98.3,2.8,1.4,1.75,2.38,3.58,3.57,3.11,6.9-.47,3.33-1.15,4.82-3.92,5.47-1.51.36-3.39.78-5.04.78-1.39,0-2.61-.3-3.32-1.2-1.53-1.96-2.94-5.12-1.71-8.21,1.24-3.09,3.45-4.52,6.18-4.76,0,0,.84-.39,1.89-.39M616.2,509.88h0c-1.97,0-3.71.32-5.11.71-7.24,1.3-13.13,6.14-15.97,13.25-2.87,7.18-1.49,15.41,3.68,22.03,1.92,2.46,6.34,6.58,14.35,6.58,3.1,0,5.89-.6,8.26-1.16,6.11-1.44,9.51-4.95,11.28-7.64,2.18-3.29,2.88-6.66,3.28-9.51,1.23-8.76-3.21-14.13-5.11-16.42-.24-.28-.46-.55-.58-.72-3.32-4.52-8.45-7.12-14.08-7.12h0Z"/>
    <path class="cls-2" d="M628.84,422.21s24.06,39.1,28.57,45.62,29.07,38.1,29.07,38.1"/>
    <path class="cls-2" d="M236.35,427.22s40.1-5.51,68.67-3.01,112.79,5.51,147.37,5.01,82.71-1,95.24,0,45.11,2.51,45.11,2.51"/>
    <path class="cls-1" d="M765.79,532.98c5.47,0,9.68,2.9,9.92,6.53.25,3.76-.5,9.4-9.77,10.03-.45.03-.89.05-1.31.05-8.1,0-9.34-5.54-9.34-7.69,0-2.26.25-8.52,9.9-8.9.2,0,.41-.01.61-.01M765.79,518.98c-.38,0-.77,0-1.15.02-11.61.45-17.3,6.43-19.66,9.95-2.45,3.67-3.7,8.02-3.7,12.94s1.71,9.66,4.7,13.4c4.28,5.35,10.9,8.29,18.64,8.29.73,0,1.49-.03,2.25-.08,10.75-.73,16.34-5.84,19.14-10,2.81-4.19,4.05-9.21,3.66-14.93-.74-11.17-11.01-19.6-23.89-19.6h0Z"/>
    <path class="cls-1" d="M49.21,544.32c5.47,0,9.68,2.9,9.92,6.53.25,3.76-.5,9.4-9.77,10.03-.45.03-.89.05-1.31.05-8.1,0-9.34-5.54-9.34-7.69,0-2.26.25-8.52,9.9-8.9.2,0,.41-.01.61-.01M49.21,530.32c-.38,0-.77,0-1.15.02-11.61.45-17.3,6.43-19.66,9.95-2.45,3.67-3.7,8.02-3.7,12.94s1.71,9.66,4.7,13.4c4.28,5.35,10.9,8.29,18.64,8.29.73,0,1.49-.03,2.25-.08,10.75-.73,16.34-5.84,19.14-10,2.81-4.19,4.05-9.21,3.66-14.93-.74-11.17-11.01-19.6-23.89-19.6h0Z"/>
    <path class="cls-1" d="M232.33,234.96c20.45,0,38.17,11.44,38.17,28.34s-12.03,45.36-33.33,46.12c-.57.02-1.15.03-1.71.03-20.58,0-38.16-13.16-39.14-34.87-1-22.31,5.76-38.85,34.59-39.6.48-.01.96-.02,1.43-.02M232.33,220.96h0c-.6,0-1.2,0-1.8.02-15.99.42-28.3,5.13-36.57,14.01-8.63,9.27-12.44,22.42-11.64,40.21,1.26,27.95,23.6,48.24,53.13,48.24.73,0,1.47-.01,2.21-.04,14.31-.51,27.13-8.87,36.11-23.54,6.72-10.99,10.73-24.66,10.73-36.57,0-12.64-6.14-23.97-17.3-31.91-9.45-6.72-21.83-10.43-34.87-10.43h0Z"/>
    <path class="cls-1" d="M580.02,239.57c18.69,0,32.33,14.96,32.09,31.25-.25,17.29-11.53,33.33-30.58,33.84-.43.01-.87.02-1.31.02-18.64,0-37.53-10.44-36.79-27.34.75-17.29,7.52-35.09,33.08-37.6,1.18-.12,2.35-.17,3.5-.17M580.02,225.57h0c-1.61,0-3.25.08-4.86.24-15.83,1.55-27.89,7.95-35.84,19.01-5.98,8.32-9.3,19.05-9.86,31.91-.43,9.78,3.08,18.84,10.12,26.21,9.44,9.85,24.63,15.74,40.65,15.74.56,0,1.12,0,1.67-.02,12.92-.34,24.53-5.89,32.69-15.62,7.25-8.64,11.34-20.01,11.51-32.01.17-11.65-4.54-23.21-12.93-31.72-8.73-8.86-20.51-13.73-33.16-13.73h0Z"/>
  </g>
</svg>