<?xml version="1.0" encoding="UTF-8"?>
<svg id="object" xmlns="http://www.w3.org/2000/svg" viewBox="0 0 48.38 47.27">
  <defs>
    <style>
      .cls-1 {
        fill: #29495c;
      }
    </style>
  </defs>
  <g id="globe">
    <path class="cls-1" d="M9.96,2.62c-2.06,1.23-3.87,2.84-5.33,4.74C2.57,10.41,1.17,13.86,.53,17.49c-1.06,5.71-.39,11.6,1.92,16.93,3.07,7.25,9.93,12.18,17.78,12.79,7.74,.54,15.35-2.22,20.95-7.58,6.59-6.46,8.89-16.13,5.92-24.87-1.93-6.59-7.11-11.73-13.72-13.61C29.45,.19,25.41-.17,21.38,.08c-4,.08-8,.51-11.48,2.54-.38,.28-.46,.81-.18,1.19,.24,.32,.66,.43,1.03,.27,3.15-1.82,6.7-2.21,10.28-2.31,3.28-.18,6.58,0,9.82,.53,5.99,.99,11.08,4.9,13.6,10.42,3.73,8.08,2.63,17.92-3.39,24.55-9,9.9-27.15,12.12-35.27-.09C.65,29.04,.27,18.78,4.79,10.29c1.42-2.56,3.49-4.7,6-6.21,.91-.6,.06-2.06-.85-1.46h.02Z"/>
    <path class="cls-1" d="M22.85,.82c-.04,15.14,.35,30.27,1.16,45.39,.06,1.08,1.75,1.08,1.7,0-.8-15.12-1.19-30.25-1.17-45.39-.05-.47-.47-.8-.94-.75-.4,.04-.71,.36-.75,.75Z"/>
    <path class="cls-1" d="M.81,24.36c7.88-.89,15.81-.76,23.73-.68l23,.23c.47-.05,.8-.47,.75-.94-.04-.4-.36-.71-.75-.75l-23-.23c-7.92-.08-15.85-.21-23.73,.68-1.07,.12-1.08,1.81,0,1.69h0Z"/>
    <path class="cls-1" d="M17.29,1.02c-2.93,3-5.67,6-7,10.06-1.46,4.48-1.92,9.22-1.35,13.9,1.03,8.52,5.29,16.33,11.89,21.82,.83,.7,2-.49,1.2-1.19-6.24-5.12-10.31-12.41-11.39-20.4-.55-4.28-.21-8.62,1-12.76,1.22-4.18,3.9-7.23,6.9-10.28,.29-.37,.23-.9-.14-1.19-.31-.25-.75-.25-1.06,0l-.05,.04Z"/>
    <path class="cls-1" d="M31.22,45.7c2.88-1.77,5.07-4.47,6.2-7.66,1.47-4.41,2.09-9.05,1.85-13.69-.4-8.74-5-16.41-9.55-23.63-.57-.92-2-.07-1.46,.85,4.11,6.55,8.42,13.48,9.22,21.35,.34,4.09,0,8.22-1,12.2-.71,3.74-2.91,7.02-6.1,9.09-.9,.6-.06,2.06,.86,1.46l-.02,.03Z"/>
    <path class="cls-1" d="M5.09,7.6c1.57,2.17,4.24,2.74,6.72,3.41,3.37,.92,6.85,1.4,10.34,1.42,6.88,.04,13.65-1.7,19.66-5.06,1-.53,.1-2-.85-1.46-5.33,2.98-11.3,4.63-17.4,4.82-2.98,.08-5.97-.17-8.89-.77-2.42-.5-6.58-1.09-8.12-3.21-.63-.88-2.09,0-1.46,.85Z"/>
    <path class="cls-1" d="M5.38,38.1c5.75-3.54,12.27-5.64,19-6.14,6.25-.45,14-.31,19.23,3.6,.87,.65,1.72-.81,.86-1.46-5.43-4.08-13.58-4.29-20.09-3.83-7.03,.51-13.83,2.69-19.84,6.37-.93,.56-.08,2,.85,1.46h0Z"/>
  </g>
</svg>