<?xml version="1.0" encoding="UTF-8"?>
<svg xmlns="http://www.w3.org/2000/svg" viewBox="0 0 123.06 213.53">
  <defs>
    <style>
      .cls-1 {
        fill: none;
      }

      .cls-2 {
        fill: #f2f3f5;
      }

      .cls-3 {
        fill: #fc803b;
      }

      .cls-4 {
        fill: #fdcb87;
      }

      .cls-5 {
        fill: #fd643b;
      }

      .cls-6 {
        fill: #e5e5e7;
      }

      .cls-7 {
        fill: #6c7173;
      }

      .cls-8 {
        fill: #c14f29;
      }

      .cls-9 {
        fill: #cfd0d2;
      }

      .cls-10 {
        fill: #162934;
      }

      .cls-11 {
        fill: #154965;
      }

      .cls-12 {
        fill: #29495c;
      }

      .cls-13 {
        fill: #77ccfd;
      }

      .cls-14 {
        fill: #518fb6;
      }
    </style>
  </defs>
  <g id="art"/>
  <g id="object"/>
  <g id="background"/>
  <g id="people">
    <g id="man_in_labcoat">
      <path id="skin" class="cls-4" d="M111.08,67.1c.6-.62,1.34-1.08,2.16-1.33,1.14-.26,2.91,.7,6.67-1.25,2.72-1.42,3.84-2.84,2.73-3.42s-5.28,1.16-6.44,.24c-.74-.59-.63-5-.63-5-2.43,2.5-4.48,5.34-6.08,8.44l1.59,2.32Z"/>
      <g id="legs">
        <rect id="skin-2" data-name="skin" class="cls-4" x="30.57" y="199.82" width="4.88" height="8.64"/>
        <rect id="skin-3" data-name="skin" class="cls-4" x="47.58" y="199.82" width="4.88" height="8.64"/>
      </g>
      <path id="trousers" class="cls-12" d="M27.78,96.52s2.42,32.39,1.67,55.38-.8,49.8-.8,49.8c0,0,5.78,1.05,9.77-.33,0,0,9.54-51.63,8-85.18,0,0-.36-.66,2.17-.15,1.64,28.51,.87,57.11-2.28,85.49,0,0,5.16,1.94,8-.22,0,0,19.33-70.34,5.29-102.6l-30.87-2.19h-.95Z"/>
      <g id="shoe_rear">
        <path class="cls-11" d="M46.05,206.57c-.39,1.48-.64,3-.75,4.53,0,0,5.23-.38,5.85,0s1.09,2.43,1.09,2.43h14.12s.3-2.25-1.66-2.81-7.13-1.08-8.67-3.14-2-2.51-2.87-2.29-1.28,1.35-1.28,1.35c0,0-3.77,.71-5.83-.07Z"/>
        <path class="cls-11" d="M44.96,211.01s4.6-.38,6.05,.07c-.02,.83-.14,1.65-.34,2.45l-5.71-.08s-.27-2.34,0-2.44Z"/>
        <path class="cls-11" d="M59.35,209.47c-1.32,.29-2.68,.32-4,.07-1.53-.4-2.8-1.47-3.47-2.9-.39-1.12,1.11-2.78,2.36-1.28s2.45,3.44,5.11,4.11Z"/>
      </g>
      <g id="shoe_front">
        <path class="cls-11" d="M29.67,206.57c-.39,1.48-.65,3-.76,4.53,0,0,5.23-.38,5.86,0s1.11,2.38,1.11,2.38h14.12s.29-2.25-1.67-2.81-7.09-1.04-8.66-3.04-2-2.51-2.88-2.29-1.27,1.35-1.27,1.35c0,0-3.8,.66-5.85-.12Z"/>
        <path class="cls-11" d="M28.58,211.01s4.59-.38,6,.07c-.02,.83-.13,1.65-.33,2.45l-5.71-.08s-.24-2.34,.04-2.44Z"/>
        <path class="cls-11" d="M42.97,209.47c-1.32,.29-2.68,.32-4,.07-1.53-.4-2.8-1.47-3.47-2.9-.39-1.12,1.1-2.78,2.35-1.28s2.46,3.44,5.12,4.11Z"/>
      </g>
      <path class="cls-8" d="M33.43,111.13c6.29,1.88,6.54-10.8,6.12-12.83l-.85-.39c-2.6,.07-4.5,.2-4.5,.2-.3,.52-.71,5.52-.77,13.02Z"/>
      <g id="head">
        <path id="skin-4" data-name="skin" class="cls-4" d="M46.98,38.48c-.42,3.77,.95,7.53,3.69,10.15l-3.76,3.69-9.81-4.08s2.37-8.44-1.05-15.42,10.93,5.66,10.93,5.66Z"/>
        <path id="skin-5" data-name="skin" class="cls-4" d="M37.9,42.13c.08-2.72-.35-5.44-1.29-8l6.33,1c2.21,1.76,4,3.37,4,3.37-.17,1.53-.05,3.07,.35,4.56-1.47,.62-4.4,1.08-9.39-.93Z"/>
        <path id="glasses" class="cls-12" d="M56.72,22.91c-.73-.77-1.15-1.79-1.16-2.85v-.18l7.94-.55v.18c.14,1.06-.13,2.13-.75,3-.75,.85-1.82,1.34-2.95,1.34-1.11,.15-2.24-.2-3.08-.94Zm-.76-2.66c.04,.89,.39,1.73,1,2.38,1.68,1.23,3.99,1.06,5.48-.38,.52-.73,.76-1.61,.69-2.5l-7.17,.5Z"/>
        <path id="glasses-2" data-name="glasses" class="cls-12" d="M59.38,24.27c-1.08,.05-2.14-.33-2.95-1.06-.82-.84-1.28-1.97-1.29-3.15v-.56l8.71-.61,.08,.56c.15,1.17-.15,2.35-.84,3.3-.82,.94-2,1.49-3.25,1.5l-.46,.02Zm-3-3.64c.1,.64,.4,1.23,.85,1.69,.59,.5,1.35,.76,2.12,.72h.38c.9,.01,1.75-.35,2.37-1,.39-.52,.6-1.15,.61-1.8l-6.33,.39Z"/>
        <path id="skin-6" data-name="skin" class="cls-4" d="M52.71,10.79s6.58,5.9,8,17.21c-.97,.32-1.98,.55-3,.67,0,0,.49,7-4.69,9.83s-13.28,4.27-18.67-9.12l-1.73-5.75,4.56-6.09s12.11-4,12.37-4.14,3.16-2.61,3.16-2.61Z"/>
        <path id="glasses-3" data-name="glasses" class="cls-12" d="M50.57,23.34c-.73-.77-1.15-1.79-1.16-2.85v-.18l7.94-.55v.18c.14,1.06-.13,2.13-.75,3-1.63,1.63-4.22,1.81-6.06,.42l.03-.02Zm-.76-2.66c.04,.88,.39,1.73,1,2.37,1.67,1.23,3.99,1.08,5.48-.37,.52-.73,.76-1.61,.69-2.5l-7.17,.5Z"/>
        <path id="glasses-4" data-name="glasses" class="cls-12" d="M53.24,24.7c-1.1,.06-2.18-.32-3-1.06-.82-.85-1.28-1.97-1.29-3.15v-.56l8.71-.61,.08,.55c.16,1.17-.14,2.36-.84,3.31-.81,.94-1.99,1.49-3.24,1.5l-.42,.02Zm-3-3.64c.09,.64,.39,1.23,.84,1.69,1.49,1.07,3.54,.93,4.87-.33,.39-.52,.6-1.15,.61-1.8l-6.32,.44Z"/>
        <path id="glasses-5" data-name="glasses" class="cls-7" d="M49.68,20.49s-5.62,1-9.74,1.7"/>
        <line id="glasses-6" data-name="glasses" class="cls-1" x1="58.77" y1="19.86" x2="56.9" y2="19.99"/>
        <rect id="glasses-7" data-name="glasses" class="cls-12" x="56.91" y="19.73" width="1.87" height=".39" transform="translate(-1.25 4.07) rotate(-3.99)"/>
        <rect id="glasses-8" data-name="glasses" class="cls-12" x="56.47" y="19.32" width="2.71" height="1.22" transform="translate(-1.25 4.08) rotate(-4)"/>
        <path id="beard" class="cls-12" d="M47.38,32.41c-3.28-2.67-5.59-6.34-6.58-10.45l-1.93-.16,1.3,2.47s2.24,10.86,.22,15.09c2.32,3.67,6.54,5.67,10.85,5.14,9.2-.82,6.57-14.12,6.57-14.12l-2.63,.81-5.38,1.85-2.42-.63Z"/>
        <path id="moustache" class="cls-10" d="M48.92,32.17c1.91,.1,2.73-2.26,5.27-3.48s3.58,.76,3.58,.76c2.19,.53,2.33,4,1,5.08-1,.79-1.51-.69-1.73-1.52-1.63,1.37-3.6,2.28-5.7,2.63-4.11,.81-5.21-4.13-5.21-4.13,.86,.44,1.82,.67,2.79,.66Z"/>
        <path id="hair" class="cls-12" d="M57.07,16.63s8.41-10.35-1.69-15.58c-7-3.6-10.15,3.07-14.48,5s-9.78,.56-12.54,7.54,4.23,16.92,5.59,19.49c.81,1.31,1.05,2.89,.65,4.38,0,0,4.92-3.44,2.75-8.56s.74-6.29,.74-6.29c0,0,16.66-1.2,15.53-10.87,1.33,1.5,2.48,3.14,3.45,4.89Z"/>
        <path id="glasses-9" data-name="glasses" class="cls-12" d="M39.97,22.38c4.08-.67,9.69-1.69,9.74-1.7l-.07-.38c-.05,0-5.8,1-9.87,1.71l.2,.37Z"/>
        <path id="glasses-10" data-name="glasses" class="cls-12" d="M39.75,22.84l-.63-1.15,.58-.09c4.08-.68,9.82-1.7,9.87-1.71l.41-.08,.22,1.21-.46,.08c-1.37,.25-6.11,1.1-9.7,1.69l-.29,.05Z"/>
        <path id="skin-7" data-name="skin" class="cls-4" d="M39.94,22.19c-.96-1.02-2.38-1.47-3.75-1.18-2.36,.49-.73,8.65,4.62,7.39l-.87-6.21Z"/>
      </g>
      <g id="shirt">
        <path id="shirt-2" data-name="shirt" class="cls-13" d="M36.38,47.71c-3.65,1.73-3.4,10.49-3.4,10.49,0,0,8.84,38.81,10.06,39.62s4.76,5.87,14.75,2.5-2.77-48.73-2.77-48.73l-4.77-3.12-3.95,1-6.53-1-3.39-.76Z"/>
        <g id="tie">
          <path class="cls-3" d="M43.42,52.99c1.34,1.83,4.34,2.77,4.34,2.77l2.4-3.45-3.83-2.81-2.91,3.49Z"/>
          <path class="cls-3" d="M46.56,52.83c.74,4.33,1,23.56,1.18,24.84s3.73,9.92,4.35,9.75,2.23-9,2.28-9.81-6-20.72-6.81-24.78c-.13-.61-1,0-1,0Z"/>
        </g>
        <g id="collar">
          <path class="cls-14" d="M37.59,44.98c-.77,.42-4.28,2.51-4.6,3.15s10.8,7.67,11.31,7.63,2.08-5.88,2-6.26-8.3-4.74-8.71-4.52Z"/>
          <path class="cls-14" d="M48.43,46.36c-.36,0-2.1,2.84-2.13,3.15s3.49,5.58,3.74,5.49c1.07-1.98,3.1-4.02,3.85-6.15-1.35-.98-3.92-1.83-5.46-2.49Z"/>
        </g>
      </g>
      <path class="cls-6" d="M62.56,67.63c.17-5.45-.6-15.24-1.2-16s-9.67-4-9.63-3.83c7.56,28.32,4.09,107.31,4.09,107.31,3.68,.76,10.1-2.13,11-3.83,.02-.05-4.43-78.24-4.26-83.65Z"/>
      <path class="cls-6" d="M20.83,52.26c-.47,.83,6.5,12.92,5.68,16.46s-5,86-4.4,86.9,19.68,1.92,28.83,.23c1.3-.22-.24-45.17-4.7-83.22-.39-3.27-9.2-20.44-12.18-25.63-3.09,1.1-12.75,4.44-13.23,5.26Z"/>
      <g id="coat">
        <path class="cls-9" d="M61.36,51.63s17.81,17.81,23.14,17.68,25.37-6,25.37-6c1.09,1.18,1.73,2.71,1.78,4.32,0,0-17.51,13.23-29.69,15.49s-26.4-13.84-26.4-13.84c0,0-.07-14.65,5.8-17.65Z"/>
        <path class="cls-6" d="M62.56,67.63c.17-5.45-.6-15.24-1.2-16s-9.67-4-9.63-3.83c7.56,28.32,4.09,107.31,4.09,107.31,3.68,.76,10.1-2.13,11-3.83,.02-.05-4.43-78.24-4.26-83.65Z"/>
        <path class="cls-6" d="M20.83,52.26c-.47,.83,6.5,12.92,5.68,16.46s-5,86-4.4,86.9,19.68,1.92,28.83,.23c1.3-.22-.24-45.17-4.7-83.22-.39-3.27-9.2-20.44-12.18-25.63-3.09,1.1-12.75,4.44-13.23,5.26Z"/>
        <path class="cls-9" d="M31.92,47.74c-.35,1.35-2.08,7.35-1.51,8s5.83,.11,5.68,.57-3.26,5.77-3.2,6.81,12.45,9.95,13.35,9.51c-.39-3.27-9.2-20.44-12.18-25.63l-2.14,.74Z"/>
        <path class="cls-9" d="M57.7,55.43c-1.07-.9-2.21-1.71-3.42-2.42-1.39-.81,2.65-2.53,2.23-3.38-.11-.17-.27-.32-.45-.41-1.41-.58-2.86-1.07-4.33-1.47,1.68,6.27,2.81,15,3.56,24.88h0c1.24,.48,2.95-16.74,2.41-17.2Z"/>
      </g>
      <g id="notebook">
        <rect id="book" class="cls-5" x="1.06" y="94.16" width="39.51" height="26.55" transform="translate(-9.05 2.15) rotate(-4.87)"/>
        <polygon id="label" class="cls-13" points="26.2 100.73 34.41 99.74 36.09 114.51 27.72 114.51 26.2 100.73"/>
      </g>
      <path id="skin-8" data-name="skin" class="cls-4" d="M18.54,115.42c1,.48,3,2,4,6.16,.24,.91-1.58,2-2.15,.15-.35-1.11-.44-1.87-.74-2s.1,.17,.25,2c.19,2.31-1.47,2.42-2,.52s0-2.79-.32-2.71-.17,1.93,0,2.92c.25,1.34-1.74,2.43-2-.14s-.28-2.14-.27-2.26-.26-.29-.3,1.6c-.07,2.69-2,1.3-1.92-1.25-.03-1.62,.27-3.24,.88-4.74,.48-1.23,1.2-2.34,2.13-3.27l2.44,3.02Z"/>
      <path id="coat_arm" class="cls-2" d="M20.83,52.26c-.31,.14-10.74,20.85-12.14,29.56-2.1,13.07,4.87,33.22,4.82,33.56-.1,.66,4.09,.7,5,0,.48-.34,4.42-23.94,5.28-28.08,.95-4.59,5.37-18.2,5-23.08-.94-10.97-7.96-11.96-7.96-11.96Z"/>
    </g>
  </g>
</svg>