<?xml version="1.0" standalone="no"?>
<!DOCTYPE svg PUBLIC "-//W3C//DTD SVG 20010904//EN"
 "http://www.w3.org/TR/2001/REC-SVG-20010904/DTD/svg10.dtd">
<svg version="1.0" xmlns="http://www.w3.org/2000/svg"
 width="1152.000000pt" height="1152.000000pt" viewBox="0 0 1152.000000 1152.000000"
 preserveAspectRatio="xMidYMid meet">
<metadata>
Created by potrace 1.14, written by Peter Selinger 2001-2017
</metadata>
<g transform="translate(0.000000,1152.000000) scale(0.100000,-0.100000)"
fill="#000000" stroke="none">
<path d="M5350 11509 c-384 -7 -729 -25 -766 -39 -24 -10 -33 -40 -59 -204
-39 -252 -58 -474 -59 -706 -1 -265 4 -292 58 -309 17 -6 73 -14 124 -19 51
-5 96 -12 99 -16 4 -4 15 -242 24 -529 60 -1779 49 -2607 -35 -2751 -43 -73
-172 -213 -551 -596 -687 -695 -944 -970 -1271 -1360 -832 -991 -1288 -1836
-1388 -2575 -34 -251 -30 -427 15 -661 71 -373 286 -651 713 -921 369 -234
977 -455 1621 -589 813 -169 1844 -256 2674 -226 924 34 1600 125 2201 297
483 138 830 314 1040 524 233 235 266 414 163 881 -133 604 -560 1494 -1198
2495 -109 171 -412 628 -490 740 -23 33 -95 137 -160 230 -172 245 -361 510
-665 925 -338 464 -373 513 -454 637 -94 144 -112 219 -141 603 -36 486 -55
1225 -55 2207 l0 651 38 6 c136 20 182 29 199 41 17 13 18 33 18 307 -1 357
-34 831 -64 910 -13 35 -37 37 -481 48 -413 10 -607 10 -1150 -1z m-494 -7579
c50 -21 104 -74 130 -126 26 -53 27 -194 1 -241 -92 -170 -321 -198 -447 -55
-64 73 -84 163 -55 258 45 152 220 229 371 164z m2269 -124 c101 -78 111 -215
20 -295 -32 -28 -89 -51 -125 -51 -67 0 -142 50 -171 115 -45 97 -3 206 96
251 49 23 136 13 180 -20z m-1216 -1216 c102 -17 183 -60 259 -137 98 -99 142
-202 142 -333 0 -232 -170 -431 -401 -470 -232 -39 -474 117 -534 345 -42 162
-1 323 112 446 78 84 161 129 273 149 64 11 78 11 149 0z"/>
</g>
</svg>
